<mxfile host="Electron" agent="Mozilla/5.0 (Windows NT 10.0; Win64; x64) AppleWebKit/537.36 (KHTML, like Gecko) draw.io/28.1.2 Chrome/138.0.7204.243 Electron/37.4.0 Safari/537.36" version="28.1.2" pages="10">
  <diagram name="1 create person" id="KtWqcxI716mKB8roe8ll">
    <mxGraphModel dx="1042" dy="626" grid="1" gridSize="10" guides="1" tooltips="1" connect="1" arrows="1" fold="1" page="1" pageScale="1" pageWidth="827" pageHeight="1169" math="0" shadow="0">
      <root>
        <mxCell id="iJv0OMnhaNwHGm1LOgVH-0" />
        <mxCell id="iJv0OMnhaNwHGm1LOgVH-1" parent="iJv0OMnhaNwHGm1LOgVH-0" />
        <mxCell id="iJv0OMnhaNwHGm1LOgVH-2" value="" style="shape=umlLifeline;perimeter=lifelinePerimeter;whiteSpace=wrap;html=1;container=1;dropTarget=0;collapsible=0;recursiveResize=0;outlineConnect=0;portConstraint=eastwest;newEdgeStyle={&quot;curved&quot;:0,&quot;rounded&quot;:0};participant=umlActor;" vertex="1" parent="iJv0OMnhaNwHGm1LOgVH-1">
          <mxGeometry x="30" y="40" width="20" height="1040" as="geometry" />
        </mxCell>
        <mxCell id="iJv0OMnhaNwHGm1LOgVH-3" value="Frontend" style="shape=umlLifeline;perimeter=lifelinePerimeter;whiteSpace=wrap;html=1;container=1;dropTarget=0;collapsible=0;recursiveResize=0;outlineConnect=0;portConstraint=eastwest;newEdgeStyle={&quot;curved&quot;:0,&quot;rounded&quot;:0};" vertex="1" parent="iJv0OMnhaNwHGm1LOgVH-1">
          <mxGeometry x="230" y="40" width="100" height="1040" as="geometry" />
        </mxCell>
        <mxCell id="iJv0OMnhaNwHGm1LOgVH-4" value="" style="html=1;points=[[0,0,0,0,5],[0,1,0,0,-5],[1,0,0,0,5],[1,1,0,0,-5]];perimeter=orthogonalPerimeter;outlineConnect=0;targetShapes=umlLifeline;portConstraint=eastwest;newEdgeStyle={&quot;curved&quot;:0,&quot;rounded&quot;:0};" vertex="1" parent="iJv0OMnhaNwHGm1LOgVH-3">
          <mxGeometry x="45" y="80" width="10" height="40" as="geometry" />
        </mxCell>
        <mxCell id="iJv0OMnhaNwHGm1LOgVH-5" value="" style="html=1;points=[[0,0,0,0,5],[0,1,0,0,-5],[1,0,0,0,5],[1,1,0,0,-5]];perimeter=orthogonalPerimeter;outlineConnect=0;targetShapes=umlLifeline;portConstraint=eastwest;newEdgeStyle={&quot;curved&quot;:0,&quot;rounded&quot;:0};" vertex="1" parent="iJv0OMnhaNwHGm1LOgVH-3">
          <mxGeometry x="45" y="160" width="10" height="40" as="geometry" />
        </mxCell>
        <mxCell id="iJv0OMnhaNwHGm1LOgVH-6" value="" style="html=1;points=[[0,0,0,0,5],[0,1,0,0,-5],[1,0,0,0,5],[1,1,0,0,-5]];perimeter=orthogonalPerimeter;outlineConnect=0;targetShapes=umlLifeline;portConstraint=eastwest;newEdgeStyle={&quot;curved&quot;:0,&quot;rounded&quot;:0};" vertex="1" parent="iJv0OMnhaNwHGm1LOgVH-3">
          <mxGeometry x="45" y="280" width="10" height="40" as="geometry" />
        </mxCell>
        <mxCell id="iJv0OMnhaNwHGm1LOgVH-7" value="" style="html=1;points=[[0,0,0,0,5],[0,1,0,0,-5],[1,0,0,0,5],[1,1,0,0,-5]];perimeter=orthogonalPerimeter;outlineConnect=0;targetShapes=umlLifeline;portConstraint=eastwest;newEdgeStyle={&quot;curved&quot;:0,&quot;rounded&quot;:0};" vertex="1" parent="iJv0OMnhaNwHGm1LOgVH-3">
          <mxGeometry x="45" y="480" width="10" height="40" as="geometry" />
        </mxCell>
        <mxCell id="iJv0OMnhaNwHGm1LOgVH-8" value="Backend" style="shape=umlLifeline;perimeter=lifelinePerimeter;whiteSpace=wrap;html=1;container=1;dropTarget=0;collapsible=0;recursiveResize=0;outlineConnect=0;portConstraint=eastwest;newEdgeStyle={&quot;curved&quot;:0,&quot;rounded&quot;:0};" vertex="1" parent="iJv0OMnhaNwHGm1LOgVH-1">
          <mxGeometry x="470" y="40" width="100" height="1040" as="geometry" />
        </mxCell>
        <mxCell id="iJv0OMnhaNwHGm1LOgVH-9" value="" style="html=1;points=[[0,0,0,0,5],[0,1,0,0,-5],[1,0,0,0,5],[1,1,0,0,-5]];perimeter=orthogonalPerimeter;outlineConnect=0;targetShapes=umlLifeline;portConstraint=eastwest;newEdgeStyle={&quot;curved&quot;:0,&quot;rounded&quot;:0};" vertex="1" parent="iJv0OMnhaNwHGm1LOgVH-8">
          <mxGeometry x="45" y="260" width="10" height="20" as="geometry" />
        </mxCell>
        <mxCell id="iJv0OMnhaNwHGm1LOgVH-10" value="" style="html=1;points=[[0,0,0,0,5],[0,1,0,0,-5],[1,0,0,0,5],[1,1,0,0,-5]];perimeter=orthogonalPerimeter;outlineConnect=0;targetShapes=umlLifeline;portConstraint=eastwest;newEdgeStyle={&quot;curved&quot;:0,&quot;rounded&quot;:0};" vertex="1" parent="iJv0OMnhaNwHGm1LOgVH-8">
          <mxGeometry x="45" y="440" width="10" height="40" as="geometry" />
        </mxCell>
        <mxCell id="iJv0OMnhaNwHGm1LOgVH-11" value="" style="html=1;points=[[0,0,0,0,5],[0,1,0,0,-5],[1,0,0,0,5],[1,1,0,0,-5]];perimeter=orthogonalPerimeter;outlineConnect=0;targetShapes=umlLifeline;portConstraint=eastwest;newEdgeStyle={&quot;curved&quot;:0,&quot;rounded&quot;:0};" vertex="1" parent="iJv0OMnhaNwHGm1LOgVH-8">
          <mxGeometry x="45" y="380" width="10" height="20" as="geometry" />
        </mxCell>
        <mxCell id="iJv0OMnhaNwHGm1LOgVH-12" value="Database" style="shape=umlLifeline;perimeter=lifelinePerimeter;whiteSpace=wrap;html=1;container=1;dropTarget=0;collapsible=0;recursiveResize=0;outlineConnect=0;portConstraint=eastwest;newEdgeStyle={&quot;curved&quot;:0,&quot;rounded&quot;:0};" vertex="1" parent="iJv0OMnhaNwHGm1LOgVH-1">
          <mxGeometry x="710" y="40" width="100" height="1050" as="geometry" />
        </mxCell>
        <mxCell id="iJv0OMnhaNwHGm1LOgVH-13" value="" style="html=1;points=[[0,0,0,0,5],[0,1,0,0,-5],[1,0,0,0,5],[1,1,0,0,-5]];perimeter=orthogonalPerimeter;outlineConnect=0;targetShapes=umlLifeline;portConstraint=eastwest;newEdgeStyle={&quot;curved&quot;:0,&quot;rounded&quot;:0};" vertex="1" parent="iJv0OMnhaNwHGm1LOgVH-12">
          <mxGeometry x="45" y="400" width="10" height="40" as="geometry" />
        </mxCell>
        <mxCell id="iJv0OMnhaNwHGm1LOgVH-14" value="access create person page" style="edgeStyle=none;orthogonalLoop=1;jettySize=auto;html=1;rounded=0;" edge="1" parent="iJv0OMnhaNwHGm1LOgVH-1" source="iJv0OMnhaNwHGm1LOgVH-2" target="iJv0OMnhaNwHGm1LOgVH-3">
          <mxGeometry width="100" relative="1" as="geometry">
            <mxPoint x="60" y="130" as="sourcePoint" />
            <mxPoint x="160" y="130" as="targetPoint" />
            <Array as="points">
              <mxPoint x="150" y="120" />
            </Array>
          </mxGeometry>
        </mxCell>
        <mxCell id="iJv0OMnhaNwHGm1LOgVH-15" value="render person form" style="endArrow=classic;html=1;rounded=0;" edge="1" parent="iJv0OMnhaNwHGm1LOgVH-1" source="iJv0OMnhaNwHGm1LOgVH-3" target="iJv0OMnhaNwHGm1LOgVH-2">
          <mxGeometry width="50" height="50" relative="1" as="geometry">
            <mxPoint x="150" y="300" as="sourcePoint" />
            <mxPoint x="200" y="250" as="targetPoint" />
            <Array as="points">
              <mxPoint x="140" y="160" />
            </Array>
          </mxGeometry>
        </mxCell>
        <mxCell id="iJv0OMnhaNwHGm1LOgVH-16" value="input form and submit" style="edgeStyle=none;orthogonalLoop=1;jettySize=auto;html=1;rounded=0;" edge="1" parent="iJv0OMnhaNwHGm1LOgVH-1" source="iJv0OMnhaNwHGm1LOgVH-2" target="iJv0OMnhaNwHGm1LOgVH-3">
          <mxGeometry width="100" relative="1" as="geometry">
            <mxPoint x="50" y="270" as="sourcePoint" />
            <mxPoint x="150" y="270" as="targetPoint" />
            <Array as="points">
              <mxPoint x="130" y="200" />
            </Array>
          </mxGeometry>
        </mxCell>
        <mxCell id="iJv0OMnhaNwHGm1LOgVH-17" value="use data &amp;amp; JWT to create new person" style="edgeStyle=none;orthogonalLoop=1;jettySize=auto;html=1;rounded=0;" edge="1" parent="iJv0OMnhaNwHGm1LOgVH-1" source="iJv0OMnhaNwHGm1LOgVH-3" target="iJv0OMnhaNwHGm1LOgVH-8">
          <mxGeometry width="100" relative="1" as="geometry">
            <mxPoint x="330" y="260" as="sourcePoint" />
            <mxPoint x="430" y="260" as="targetPoint" />
            <Array as="points">
              <mxPoint x="380" y="240" />
            </Array>
          </mxGeometry>
        </mxCell>
        <mxCell id="iJv0OMnhaNwHGm1LOgVH-18" value="condition" style="shape=umlFrame;whiteSpace=wrap;html=1;pointerEvents=0;" vertex="1" parent="iJv0OMnhaNwHGm1LOgVH-1">
          <mxGeometry x="20" y="270" width="780" height="330" as="geometry" />
        </mxCell>
        <mxCell id="iJv0OMnhaNwHGm1LOgVH-19" value="response unauthorize" style="edgeStyle=none;orthogonalLoop=1;jettySize=auto;html=1;rounded=0;" edge="1" parent="iJv0OMnhaNwHGm1LOgVH-1" source="iJv0OMnhaNwHGm1LOgVH-8" target="iJv0OMnhaNwHGm1LOgVH-3">
          <mxGeometry width="100" relative="1" as="geometry">
            <mxPoint x="370" y="330" as="sourcePoint" />
            <mxPoint x="470" y="330" as="targetPoint" />
            <Array as="points">
              <mxPoint x="380" y="320" />
            </Array>
          </mxGeometry>
        </mxCell>
        <mxCell id="iJv0OMnhaNwHGm1LOgVH-20" value="show unauthorize error" style="edgeStyle=none;orthogonalLoop=1;jettySize=auto;html=1;rounded=0;" edge="1" parent="iJv0OMnhaNwHGm1LOgVH-1" source="iJv0OMnhaNwHGm1LOgVH-3" target="iJv0OMnhaNwHGm1LOgVH-2">
          <mxGeometry width="100" relative="1" as="geometry">
            <mxPoint x="120" y="410" as="sourcePoint" />
            <mxPoint x="220" y="410" as="targetPoint" />
            <Array as="points">
              <mxPoint x="170" y="360" />
            </Array>
          </mxGeometry>
        </mxCell>
        <mxCell id="iJv0OMnhaNwHGm1LOgVH-21" value="execute sql insert into script" style="endArrow=classic;html=1;rounded=0;" edge="1" parent="iJv0OMnhaNwHGm1LOgVH-1" source="iJv0OMnhaNwHGm1LOgVH-8" target="iJv0OMnhaNwHGm1LOgVH-12">
          <mxGeometry width="50" height="50" relative="1" as="geometry">
            <mxPoint x="600" y="480" as="sourcePoint" />
            <mxPoint x="650" y="430" as="targetPoint" />
            <Array as="points">
              <mxPoint x="630" y="440" />
            </Array>
            <mxPoint as="offset" />
          </mxGeometry>
        </mxCell>
        <mxCell id="iJv0OMnhaNwHGm1LOgVH-22" value="response result" style="edgeStyle=none;orthogonalLoop=1;jettySize=auto;html=1;rounded=0;" edge="1" parent="iJv0OMnhaNwHGm1LOgVH-1" source="iJv0OMnhaNwHGm1LOgVH-12" target="iJv0OMnhaNwHGm1LOgVH-8">
          <mxGeometry width="100" relative="1" as="geometry">
            <mxPoint x="520" y="500" as="sourcePoint" />
            <mxPoint x="620" y="500" as="targetPoint" />
            <Array as="points">
              <mxPoint x="630" y="480" />
            </Array>
          </mxGeometry>
        </mxCell>
        <mxCell id="iJv0OMnhaNwHGm1LOgVH-23" value="response success" style="edgeStyle=none;orthogonalLoop=1;jettySize=auto;html=1;rounded=0;" edge="1" parent="iJv0OMnhaNwHGm1LOgVH-1" source="iJv0OMnhaNwHGm1LOgVH-8" target="iJv0OMnhaNwHGm1LOgVH-3">
          <mxGeometry width="100" relative="1" as="geometry">
            <mxPoint x="350" y="480" as="sourcePoint" />
            <mxPoint x="450" y="480" as="targetPoint" />
            <Array as="points">
              <mxPoint x="400" y="520" />
            </Array>
          </mxGeometry>
        </mxCell>
        <mxCell id="iJv0OMnhaNwHGm1LOgVH-24" value="" style="line;strokeWidth=1;fillColor=none;align=left;verticalAlign=middle;spacingTop=-1;spacingLeft=3;spacingRight=3;rotatable=0;labelPosition=right;points=[];portConstraint=eastwest;strokeColor=inherit;" vertex="1" parent="iJv0OMnhaNwHGm1LOgVH-1">
          <mxGeometry x="20" y="390" width="780" height="8" as="geometry" />
        </mxCell>
        <mxCell id="iJv0OMnhaNwHGm1LOgVH-25" value="show all person" style="edgeStyle=none;orthogonalLoop=1;jettySize=auto;html=1;rounded=0;" edge="1" parent="iJv0OMnhaNwHGm1LOgVH-1" source="iJv0OMnhaNwHGm1LOgVH-3" target="iJv0OMnhaNwHGm1LOgVH-2">
          <mxGeometry width="100" relative="1" as="geometry">
            <mxPoint x="110" y="510" as="sourcePoint" />
            <mxPoint x="210" y="510" as="targetPoint" />
            <Array as="points" />
          </mxGeometry>
        </mxCell>
        <mxCell id="iJv0OMnhaNwHGm1LOgVH-26" value="JWT is not valid" style="text;html=1;align=center;verticalAlign=middle;resizable=0;points=[];autosize=1;strokeColor=none;fillColor=none;" vertex="1" parent="iJv0OMnhaNwHGm1LOgVH-1">
          <mxGeometry x="80" y="280" width="110" height="30" as="geometry" />
        </mxCell>
        <mxCell id="iJv0OMnhaNwHGm1LOgVH-27" value="JWT is valid" style="text;html=1;align=center;verticalAlign=middle;resizable=0;points=[];autosize=1;strokeColor=none;fillColor=none;" vertex="1" parent="iJv0OMnhaNwHGm1LOgVH-1">
          <mxGeometry x="90" y="398" width="90" height="30" as="geometry" />
        </mxCell>
      </root>
    </mxGraphModel>
  </diagram>
  <diagram name="2 read person" id="YVCZXp2tXMgAeoOsg-TX">
    <mxGraphModel dx="1042" dy="626" grid="1" gridSize="10" guides="1" tooltips="1" connect="1" arrows="1" fold="1" page="1" pageScale="1" pageWidth="827" pageHeight="1169" math="0" shadow="0">
      <root>
        <mxCell id="EdWMgv1v_b5NHPsx4tXt-0" />
        <mxCell id="EdWMgv1v_b5NHPsx4tXt-1" parent="EdWMgv1v_b5NHPsx4tXt-0" />
        <mxCell id="EdWMgv1v_b5NHPsx4tXt-2" value="" style="shape=umlLifeline;perimeter=lifelinePerimeter;whiteSpace=wrap;html=1;container=1;dropTarget=0;collapsible=0;recursiveResize=0;outlineConnect=0;portConstraint=eastwest;newEdgeStyle={&quot;curved&quot;:0,&quot;rounded&quot;:0};participant=umlActor;" vertex="1" parent="EdWMgv1v_b5NHPsx4tXt-1">
          <mxGeometry x="30" y="40" width="20" height="1040" as="geometry" />
        </mxCell>
        <mxCell id="EdWMgv1v_b5NHPsx4tXt-3" value="Frontend" style="shape=umlLifeline;perimeter=lifelinePerimeter;whiteSpace=wrap;html=1;container=1;dropTarget=0;collapsible=0;recursiveResize=0;outlineConnect=0;portConstraint=eastwest;newEdgeStyle={&quot;curved&quot;:0,&quot;rounded&quot;:0};" vertex="1" parent="EdWMgv1v_b5NHPsx4tXt-1">
          <mxGeometry x="230" y="40" width="100" height="1040" as="geometry" />
        </mxCell>
        <mxCell id="EdWMgv1v_b5NHPsx4tXt-4" value="" style="html=1;points=[[0,0,0,0,5],[0,1,0,0,-5],[1,0,0,0,5],[1,1,0,0,-5]];perimeter=orthogonalPerimeter;outlineConnect=0;targetShapes=umlLifeline;portConstraint=eastwest;newEdgeStyle={&quot;curved&quot;:0,&quot;rounded&quot;:0};" vertex="1" parent="EdWMgv1v_b5NHPsx4tXt-3">
          <mxGeometry x="45" y="80" width="10" height="40" as="geometry" />
        </mxCell>
        <mxCell id="EdWMgv1v_b5NHPsx4tXt-5" value="" style="html=1;points=[[0,0,0,0,5],[0,1,0,0,-5],[1,0,0,0,5],[1,1,0,0,-5]];perimeter=orthogonalPerimeter;outlineConnect=0;targetShapes=umlLifeline;portConstraint=eastwest;newEdgeStyle={&quot;curved&quot;:0,&quot;rounded&quot;:0};" vertex="1" parent="EdWMgv1v_b5NHPsx4tXt-3">
          <mxGeometry x="45" y="200" width="10" height="40" as="geometry" />
        </mxCell>
        <mxCell id="EdWMgv1v_b5NHPsx4tXt-6" value="" style="html=1;points=[[0,0,0,0,5],[0,1,0,0,-5],[1,0,0,0,5],[1,1,0,0,-5]];perimeter=orthogonalPerimeter;outlineConnect=0;targetShapes=umlLifeline;portConstraint=eastwest;newEdgeStyle={&quot;curved&quot;:0,&quot;rounded&quot;:0};" vertex="1" parent="EdWMgv1v_b5NHPsx4tXt-3">
          <mxGeometry x="45" y="400" width="10" height="40" as="geometry" />
        </mxCell>
        <mxCell id="EdWMgv1v_b5NHPsx4tXt-7" value="Backend" style="shape=umlLifeline;perimeter=lifelinePerimeter;whiteSpace=wrap;html=1;container=1;dropTarget=0;collapsible=0;recursiveResize=0;outlineConnect=0;portConstraint=eastwest;newEdgeStyle={&quot;curved&quot;:0,&quot;rounded&quot;:0};" vertex="1" parent="EdWMgv1v_b5NHPsx4tXt-1">
          <mxGeometry x="470" y="40" width="100" height="1040" as="geometry" />
        </mxCell>
        <mxCell id="EdWMgv1v_b5NHPsx4tXt-8" value="" style="html=1;points=[[0,0,0,0,5],[0,1,0,0,-5],[1,0,0,0,5],[1,1,0,0,-5]];perimeter=orthogonalPerimeter;outlineConnect=0;targetShapes=umlLifeline;portConstraint=eastwest;newEdgeStyle={&quot;curved&quot;:0,&quot;rounded&quot;:0};" vertex="1" parent="EdWMgv1v_b5NHPsx4tXt-7">
          <mxGeometry x="45" y="180" width="10" height="20" as="geometry" />
        </mxCell>
        <mxCell id="EdWMgv1v_b5NHPsx4tXt-9" value="" style="html=1;points=[[0,0,0,0,5],[0,1,0,0,-5],[1,0,0,0,5],[1,1,0,0,-5]];perimeter=orthogonalPerimeter;outlineConnect=0;targetShapes=umlLifeline;portConstraint=eastwest;newEdgeStyle={&quot;curved&quot;:0,&quot;rounded&quot;:0};" vertex="1" parent="EdWMgv1v_b5NHPsx4tXt-7">
          <mxGeometry x="45" y="300" width="10" height="20" as="geometry" />
        </mxCell>
        <mxCell id="EdWMgv1v_b5NHPsx4tXt-10" value="" style="html=1;points=[[0,0,0,0,5],[0,1,0,0,-5],[1,0,0,0,5],[1,1,0,0,-5]];perimeter=orthogonalPerimeter;outlineConnect=0;targetShapes=umlLifeline;portConstraint=eastwest;newEdgeStyle={&quot;curved&quot;:0,&quot;rounded&quot;:0};" vertex="1" parent="EdWMgv1v_b5NHPsx4tXt-7">
          <mxGeometry x="45" y="360" width="10" height="40" as="geometry" />
        </mxCell>
        <mxCell id="EdWMgv1v_b5NHPsx4tXt-11" value="Database" style="shape=umlLifeline;perimeter=lifelinePerimeter;whiteSpace=wrap;html=1;container=1;dropTarget=0;collapsible=0;recursiveResize=0;outlineConnect=0;portConstraint=eastwest;newEdgeStyle={&quot;curved&quot;:0,&quot;rounded&quot;:0};" vertex="1" parent="EdWMgv1v_b5NHPsx4tXt-1">
          <mxGeometry x="710" y="40" width="100" height="1050" as="geometry" />
        </mxCell>
        <mxCell id="EdWMgv1v_b5NHPsx4tXt-12" value="" style="html=1;points=[[0,0,0,0,5],[0,1,0,0,-5],[1,0,0,0,5],[1,1,0,0,-5]];perimeter=orthogonalPerimeter;outlineConnect=0;targetShapes=umlLifeline;portConstraint=eastwest;newEdgeStyle={&quot;curved&quot;:0,&quot;rounded&quot;:0};" vertex="1" parent="EdWMgv1v_b5NHPsx4tXt-11">
          <mxGeometry x="45" y="320" width="10" height="40" as="geometry" />
        </mxCell>
        <mxCell id="EdWMgv1v_b5NHPsx4tXt-13" value="access person page" style="edgeStyle=none;orthogonalLoop=1;jettySize=auto;html=1;rounded=0;" edge="1" parent="EdWMgv1v_b5NHPsx4tXt-1" source="EdWMgv1v_b5NHPsx4tXt-2" target="EdWMgv1v_b5NHPsx4tXt-3">
          <mxGeometry width="100" relative="1" as="geometry">
            <mxPoint x="60" y="130" as="sourcePoint" />
            <mxPoint x="160" y="130" as="targetPoint" />
            <Array as="points">
              <mxPoint x="150" y="120" />
            </Array>
          </mxGeometry>
        </mxCell>
        <mxCell id="EdWMgv1v_b5NHPsx4tXt-14" value="use JWT to get all person" style="edgeStyle=none;orthogonalLoop=1;jettySize=auto;html=1;rounded=0;" edge="1" parent="EdWMgv1v_b5NHPsx4tXt-1">
          <mxGeometry width="100" relative="1" as="geometry">
            <mxPoint x="279.54761904761926" y="160" as="sourcePoint" />
            <mxPoint x="519.5" y="160" as="targetPoint" />
            <Array as="points">
              <mxPoint x="380" y="160" />
            </Array>
          </mxGeometry>
        </mxCell>
        <mxCell id="EdWMgv1v_b5NHPsx4tXt-15" value="condition" style="shape=umlFrame;whiteSpace=wrap;html=1;pointerEvents=0;" vertex="1" parent="EdWMgv1v_b5NHPsx4tXt-1">
          <mxGeometry x="20" y="200" width="780" height="320" as="geometry" />
        </mxCell>
        <mxCell id="EdWMgv1v_b5NHPsx4tXt-16" value="response unauthorize" style="edgeStyle=none;orthogonalLoop=1;jettySize=auto;html=1;rounded=0;" edge="1" parent="EdWMgv1v_b5NHPsx4tXt-1">
          <mxGeometry width="100" relative="1" as="geometry">
            <mxPoint x="519.5" y="240" as="sourcePoint" />
            <mxPoint x="279.54761904761926" y="240" as="targetPoint" />
            <Array as="points">
              <mxPoint x="380" y="240" />
            </Array>
          </mxGeometry>
        </mxCell>
        <mxCell id="EdWMgv1v_b5NHPsx4tXt-17" value="show unauthorize error" style="edgeStyle=none;orthogonalLoop=1;jettySize=auto;html=1;rounded=0;" edge="1" parent="EdWMgv1v_b5NHPsx4tXt-1">
          <mxGeometry width="100" relative="1" as="geometry">
            <mxPoint x="279.5" y="280" as="sourcePoint" />
            <mxPoint x="39.547619047619264" y="280" as="targetPoint" />
            <Array as="points">
              <mxPoint x="170" y="280" />
            </Array>
          </mxGeometry>
        </mxCell>
        <mxCell id="EdWMgv1v_b5NHPsx4tXt-18" value="execute sql select script" style="endArrow=classic;html=1;rounded=0;" edge="1" parent="EdWMgv1v_b5NHPsx4tXt-1">
          <mxGeometry width="50" height="50" relative="1" as="geometry">
            <mxPoint x="519.5476190476193" y="360" as="sourcePoint" />
            <mxPoint x="759.5" y="360" as="targetPoint" />
            <Array as="points">
              <mxPoint x="630" y="360" />
            </Array>
          </mxGeometry>
        </mxCell>
        <mxCell id="EdWMgv1v_b5NHPsx4tXt-19" value="response data" style="edgeStyle=none;orthogonalLoop=1;jettySize=auto;html=1;rounded=0;" edge="1" parent="EdWMgv1v_b5NHPsx4tXt-1">
          <mxGeometry width="100" relative="1" as="geometry">
            <mxPoint x="759.5" y="400" as="sourcePoint" />
            <mxPoint x="519.5476190476193" y="400" as="targetPoint" />
            <Array as="points">
              <mxPoint x="630" y="400" />
            </Array>
          </mxGeometry>
        </mxCell>
        <mxCell id="EdWMgv1v_b5NHPsx4tXt-20" value="response data" style="edgeStyle=none;orthogonalLoop=1;jettySize=auto;html=1;rounded=0;" edge="1" parent="EdWMgv1v_b5NHPsx4tXt-1">
          <mxGeometry width="100" relative="1" as="geometry">
            <mxPoint x="519.5" y="440" as="sourcePoint" />
            <mxPoint x="279.54761904761926" y="440" as="targetPoint" />
            <Array as="points">
              <mxPoint x="400" y="440" />
            </Array>
          </mxGeometry>
        </mxCell>
        <mxCell id="EdWMgv1v_b5NHPsx4tXt-21" value="" style="line;strokeWidth=1;fillColor=none;align=left;verticalAlign=middle;spacingTop=-1;spacingLeft=3;spacingRight=3;rotatable=0;labelPosition=right;points=[];portConstraint=eastwest;strokeColor=inherit;" vertex="1" parent="EdWMgv1v_b5NHPsx4tXt-1">
          <mxGeometry x="20" y="310" width="780" height="8" as="geometry" />
        </mxCell>
        <mxCell id="EdWMgv1v_b5NHPsx4tXt-22" value="show all person" style="edgeStyle=none;orthogonalLoop=1;jettySize=auto;html=1;rounded=0;" edge="1" parent="EdWMgv1v_b5NHPsx4tXt-1">
          <mxGeometry width="100" relative="1" as="geometry">
            <mxPoint x="279.5" y="480.0000000000002" as="sourcePoint" />
            <mxPoint x="39.547619047619264" y="480.0000000000002" as="targetPoint" />
            <Array as="points" />
          </mxGeometry>
        </mxCell>
        <mxCell id="EdWMgv1v_b5NHPsx4tXt-23" value="JWT is not valid" style="text;html=1;align=center;verticalAlign=middle;resizable=0;points=[];autosize=1;strokeColor=none;fillColor=none;" vertex="1" parent="EdWMgv1v_b5NHPsx4tXt-1">
          <mxGeometry x="80" y="200" width="110" height="30" as="geometry" />
        </mxCell>
        <mxCell id="EdWMgv1v_b5NHPsx4tXt-24" value="JWT is valid" style="text;html=1;align=center;verticalAlign=middle;resizable=0;points=[];autosize=1;strokeColor=none;fillColor=none;" vertex="1" parent="EdWMgv1v_b5NHPsx4tXt-1">
          <mxGeometry x="90" y="318" width="90" height="30" as="geometry" />
        </mxCell>
      </root>
    </mxGraphModel>
  </diagram>
  <diagram name="3 update person" id="1rDik6zlKHOSATU706sw">
    <mxGraphModel dx="1042" dy="626" grid="1" gridSize="10" guides="1" tooltips="1" connect="1" arrows="1" fold="1" page="1" pageScale="1" pageWidth="827" pageHeight="1169" math="0" shadow="0">
      <root>
        <mxCell id="ubEKFa8QZu3FwaiFdQsi-0" />
        <mxCell id="ubEKFa8QZu3FwaiFdQsi-1" parent="ubEKFa8QZu3FwaiFdQsi-0" />
        <mxCell id="ubEKFa8QZu3FwaiFdQsi-2" value="" style="shape=umlLifeline;perimeter=lifelinePerimeter;whiteSpace=wrap;html=1;container=1;dropTarget=0;collapsible=0;recursiveResize=0;outlineConnect=0;portConstraint=eastwest;newEdgeStyle={&quot;curved&quot;:0,&quot;rounded&quot;:0};participant=umlActor;" vertex="1" parent="ubEKFa8QZu3FwaiFdQsi-1">
          <mxGeometry x="30" y="40" width="20" height="1040" as="geometry" />
        </mxCell>
        <mxCell id="ubEKFa8QZu3FwaiFdQsi-3" value="Frontend" style="shape=umlLifeline;perimeter=lifelinePerimeter;whiteSpace=wrap;html=1;container=1;dropTarget=0;collapsible=0;recursiveResize=0;outlineConnect=0;portConstraint=eastwest;newEdgeStyle={&quot;curved&quot;:0,&quot;rounded&quot;:0};" vertex="1" parent="ubEKFa8QZu3FwaiFdQsi-1">
          <mxGeometry x="230" y="40" width="100" height="1040" as="geometry" />
        </mxCell>
        <mxCell id="ubEKFa8QZu3FwaiFdQsi-4" value="" style="html=1;points=[[0,0,0,0,5],[0,1,0,0,-5],[1,0,0,0,5],[1,1,0,0,-5]];perimeter=orthogonalPerimeter;outlineConnect=0;targetShapes=umlLifeline;portConstraint=eastwest;newEdgeStyle={&quot;curved&quot;:0,&quot;rounded&quot;:0};" vertex="1" parent="ubEKFa8QZu3FwaiFdQsi-3">
          <mxGeometry x="45" y="80" width="10" height="40" as="geometry" />
        </mxCell>
        <mxCell id="ubEKFa8QZu3FwaiFdQsi-5" value="" style="html=1;points=[[0,0,0,0,5],[0,1,0,0,-5],[1,0,0,0,5],[1,1,0,0,-5]];perimeter=orthogonalPerimeter;outlineConnect=0;targetShapes=umlLifeline;portConstraint=eastwest;newEdgeStyle={&quot;curved&quot;:0,&quot;rounded&quot;:0};" vertex="1" parent="ubEKFa8QZu3FwaiFdQsi-3">
          <mxGeometry x="45" y="190" width="10" height="40" as="geometry" />
        </mxCell>
        <mxCell id="ubEKFa8QZu3FwaiFdQsi-6" value="" style="html=1;points=[[0,0,0,0,5],[0,1,0,0,-5],[1,0,0,0,5],[1,1,0,0,-5]];perimeter=orthogonalPerimeter;outlineConnect=0;targetShapes=umlLifeline;portConstraint=eastwest;newEdgeStyle={&quot;curved&quot;:0,&quot;rounded&quot;:0};" vertex="1" parent="ubEKFa8QZu3FwaiFdQsi-3">
          <mxGeometry x="45" y="390" width="10" height="40" as="geometry" />
        </mxCell>
        <mxCell id="ubEKFa8QZu3FwaiFdQsi-7" value="" style="html=1;points=[[0,0,0,0,5],[0,1,0,0,-5],[1,0,0,0,5],[1,1,0,0,-5]];perimeter=orthogonalPerimeter;outlineConnect=0;targetShapes=umlLifeline;portConstraint=eastwest;newEdgeStyle={&quot;curved&quot;:0,&quot;rounded&quot;:0};" vertex="1" parent="ubEKFa8QZu3FwaiFdQsi-3">
          <mxGeometry x="45" y="520" width="10" height="40" as="geometry" />
        </mxCell>
        <mxCell id="ubEKFa8QZu3FwaiFdQsi-8" value="" style="html=1;points=[[0,0,0,0,5],[0,1,0,0,-5],[1,0,0,0,5],[1,1,0,0,-5]];perimeter=orthogonalPerimeter;outlineConnect=0;targetShapes=umlLifeline;portConstraint=eastwest;newEdgeStyle={&quot;curved&quot;:0,&quot;rounded&quot;:0};" vertex="1" parent="ubEKFa8QZu3FwaiFdQsi-3">
          <mxGeometry x="45" y="640" width="10" height="40" as="geometry" />
        </mxCell>
        <mxCell id="ubEKFa8QZu3FwaiFdQsi-9" value="" style="html=1;points=[[0,0,0,0,5],[0,1,0,0,-5],[1,0,0,0,5],[1,1,0,0,-5]];perimeter=orthogonalPerimeter;outlineConnect=0;targetShapes=umlLifeline;portConstraint=eastwest;newEdgeStyle={&quot;curved&quot;:0,&quot;rounded&quot;:0};" vertex="1" parent="ubEKFa8QZu3FwaiFdQsi-3">
          <mxGeometry x="45" y="840" width="10" height="40" as="geometry" />
        </mxCell>
        <mxCell id="ubEKFa8QZu3FwaiFdQsi-10" value="Backend" style="shape=umlLifeline;perimeter=lifelinePerimeter;whiteSpace=wrap;html=1;container=1;dropTarget=0;collapsible=0;recursiveResize=0;outlineConnect=0;portConstraint=eastwest;newEdgeStyle={&quot;curved&quot;:0,&quot;rounded&quot;:0};" vertex="1" parent="ubEKFa8QZu3FwaiFdQsi-1">
          <mxGeometry x="470" y="40" width="100" height="1040" as="geometry" />
        </mxCell>
        <mxCell id="ubEKFa8QZu3FwaiFdQsi-11" value="" style="html=1;points=[[0,0,0,0,5],[0,1,0,0,-5],[1,0,0,0,5],[1,1,0,0,-5]];perimeter=orthogonalPerimeter;outlineConnect=0;targetShapes=umlLifeline;portConstraint=eastwest;newEdgeStyle={&quot;curved&quot;:0,&quot;rounded&quot;:0};" vertex="1" parent="ubEKFa8QZu3FwaiFdQsi-10">
          <mxGeometry x="45" y="170" width="10" height="20" as="geometry" />
        </mxCell>
        <mxCell id="ubEKFa8QZu3FwaiFdQsi-12" value="" style="html=1;points=[[0,0,0,0,5],[0,1,0,0,-5],[1,0,0,0,5],[1,1,0,0,-5]];perimeter=orthogonalPerimeter;outlineConnect=0;targetShapes=umlLifeline;portConstraint=eastwest;newEdgeStyle={&quot;curved&quot;:0,&quot;rounded&quot;:0};" vertex="1" parent="ubEKFa8QZu3FwaiFdQsi-10">
          <mxGeometry x="45" y="290" width="10" height="20" as="geometry" />
        </mxCell>
        <mxCell id="ubEKFa8QZu3FwaiFdQsi-13" value="" style="html=1;points=[[0,0,0,0,5],[0,1,0,0,-5],[1,0,0,0,5],[1,1,0,0,-5]];perimeter=orthogonalPerimeter;outlineConnect=0;targetShapes=umlLifeline;portConstraint=eastwest;newEdgeStyle={&quot;curved&quot;:0,&quot;rounded&quot;:0};" vertex="1" parent="ubEKFa8QZu3FwaiFdQsi-10">
          <mxGeometry x="45" y="620" width="10" height="20" as="geometry" />
        </mxCell>
        <mxCell id="ubEKFa8QZu3FwaiFdQsi-14" value="" style="html=1;points=[[0,0,0,0,5],[0,1,0,0,-5],[1,0,0,0,5],[1,1,0,0,-5]];perimeter=orthogonalPerimeter;outlineConnect=0;targetShapes=umlLifeline;portConstraint=eastwest;newEdgeStyle={&quot;curved&quot;:0,&quot;rounded&quot;:0};" vertex="1" parent="ubEKFa8QZu3FwaiFdQsi-10">
          <mxGeometry x="45" y="740" width="10" height="20" as="geometry" />
        </mxCell>
        <mxCell id="ubEKFa8QZu3FwaiFdQsi-15" value="" style="html=1;points=[[0,0,0,0,5],[0,1,0,0,-5],[1,0,0,0,5],[1,1,0,0,-5]];perimeter=orthogonalPerimeter;outlineConnect=0;targetShapes=umlLifeline;portConstraint=eastwest;newEdgeStyle={&quot;curved&quot;:0,&quot;rounded&quot;:0};" vertex="1" parent="ubEKFa8QZu3FwaiFdQsi-10">
          <mxGeometry x="45" y="800" width="10" height="40" as="geometry" />
        </mxCell>
        <mxCell id="ubEKFa8QZu3FwaiFdQsi-16" value="" style="html=1;points=[[0,0,0,0,5],[0,1,0,0,-5],[1,0,0,0,5],[1,1,0,0,-5]];perimeter=orthogonalPerimeter;outlineConnect=0;targetShapes=umlLifeline;portConstraint=eastwest;newEdgeStyle={&quot;curved&quot;:0,&quot;rounded&quot;:0};" vertex="1" parent="ubEKFa8QZu3FwaiFdQsi-10">
          <mxGeometry x="45" y="350" width="10" height="40" as="geometry" />
        </mxCell>
        <mxCell id="ubEKFa8QZu3FwaiFdQsi-17" value="Database" style="shape=umlLifeline;perimeter=lifelinePerimeter;whiteSpace=wrap;html=1;container=1;dropTarget=0;collapsible=0;recursiveResize=0;outlineConnect=0;portConstraint=eastwest;newEdgeStyle={&quot;curved&quot;:0,&quot;rounded&quot;:0};" vertex="1" parent="ubEKFa8QZu3FwaiFdQsi-1">
          <mxGeometry x="710" y="40" width="100" height="1050" as="geometry" />
        </mxCell>
        <mxCell id="ubEKFa8QZu3FwaiFdQsi-18" value="" style="html=1;points=[[0,0,0,0,5],[0,1,0,0,-5],[1,0,0,0,5],[1,1,0,0,-5]];perimeter=orthogonalPerimeter;outlineConnect=0;targetShapes=umlLifeline;portConstraint=eastwest;newEdgeStyle={&quot;curved&quot;:0,&quot;rounded&quot;:0};" vertex="1" parent="ubEKFa8QZu3FwaiFdQsi-17">
          <mxGeometry x="45" y="310" width="10" height="40" as="geometry" />
        </mxCell>
        <mxCell id="ubEKFa8QZu3FwaiFdQsi-19" value="" style="html=1;points=[[0,0,0,0,5],[0,1,0,0,-5],[1,0,0,0,5],[1,1,0,0,-5]];perimeter=orthogonalPerimeter;outlineConnect=0;targetShapes=umlLifeline;portConstraint=eastwest;newEdgeStyle={&quot;curved&quot;:0,&quot;rounded&quot;:0};" vertex="1" parent="ubEKFa8QZu3FwaiFdQsi-17">
          <mxGeometry x="45" y="760" width="10" height="40" as="geometry" />
        </mxCell>
        <mxCell id="ubEKFa8QZu3FwaiFdQsi-20" value="access update person page" style="edgeStyle=none;orthogonalLoop=1;jettySize=auto;html=1;rounded=0;" edge="1" parent="ubEKFa8QZu3FwaiFdQsi-1" source="ubEKFa8QZu3FwaiFdQsi-2" target="ubEKFa8QZu3FwaiFdQsi-3">
          <mxGeometry width="100" relative="1" as="geometry">
            <mxPoint x="60" y="130" as="sourcePoint" />
            <mxPoint x="160" y="130" as="targetPoint" />
            <Array as="points">
              <mxPoint x="150" y="120" />
            </Array>
          </mxGeometry>
        </mxCell>
        <mxCell id="ubEKFa8QZu3FwaiFdQsi-21" value="edit data in form and submit" style="edgeStyle=none;orthogonalLoop=1;jettySize=auto;html=1;rounded=0;" edge="1" parent="ubEKFa8QZu3FwaiFdQsi-1">
          <mxGeometry width="100" relative="1" as="geometry">
            <mxPoint x="38.833333333333485" y="560" as="sourcePoint" />
            <mxPoint x="279.5000000000002" y="560" as="targetPoint" />
            <Array as="points">
              <mxPoint x="130" y="560" />
            </Array>
          </mxGeometry>
        </mxCell>
        <mxCell id="ubEKFa8QZu3FwaiFdQsi-22" value="use person ID &amp;amp; data &amp;amp; JWT to update" style="edgeStyle=none;orthogonalLoop=1;jettySize=auto;html=1;rounded=0;" edge="1" parent="ubEKFa8QZu3FwaiFdQsi-1">
          <mxGeometry width="100" relative="1" as="geometry">
            <mxPoint x="278.8333333333335" y="600" as="sourcePoint" />
            <mxPoint x="519.5000000000005" y="600" as="targetPoint" />
            <Array as="points">
              <mxPoint x="380" y="600" />
            </Array>
          </mxGeometry>
        </mxCell>
        <mxCell id="ubEKFa8QZu3FwaiFdQsi-23" value="condition" style="shape=umlFrame;whiteSpace=wrap;html=1;pointerEvents=0;" vertex="1" parent="ubEKFa8QZu3FwaiFdQsi-1">
          <mxGeometry x="20" y="640" width="780" height="320" as="geometry" />
        </mxCell>
        <mxCell id="ubEKFa8QZu3FwaiFdQsi-24" value="response unauthorize" style="edgeStyle=none;orthogonalLoop=1;jettySize=auto;html=1;rounded=0;" edge="1" parent="ubEKFa8QZu3FwaiFdQsi-1">
          <mxGeometry width="100" relative="1" as="geometry">
            <mxPoint x="519.5000000000005" y="680" as="sourcePoint" />
            <mxPoint x="278.8333333333335" y="680" as="targetPoint" />
            <Array as="points">
              <mxPoint x="380" y="680" />
            </Array>
          </mxGeometry>
        </mxCell>
        <mxCell id="ubEKFa8QZu3FwaiFdQsi-25" value="show unauthorize error" style="edgeStyle=none;orthogonalLoop=1;jettySize=auto;html=1;rounded=0;" edge="1" parent="ubEKFa8QZu3FwaiFdQsi-1">
          <mxGeometry width="100" relative="1" as="geometry">
            <mxPoint x="279.5000000000002" y="720" as="sourcePoint" />
            <mxPoint x="38.833333333333485" y="720" as="targetPoint" />
            <Array as="points">
              <mxPoint x="170" y="720" />
            </Array>
          </mxGeometry>
        </mxCell>
        <mxCell id="ubEKFa8QZu3FwaiFdQsi-26" value="execute sql update script" style="endArrow=classic;html=1;rounded=0;" edge="1" parent="ubEKFa8QZu3FwaiFdQsi-1">
          <mxGeometry width="50" height="50" relative="1" as="geometry">
            <mxPoint x="518.8333333333335" y="800" as="sourcePoint" />
            <mxPoint x="759.5000000000005" y="800" as="targetPoint" />
            <Array as="points">
              <mxPoint x="630" y="800" />
            </Array>
          </mxGeometry>
        </mxCell>
        <mxCell id="ubEKFa8QZu3FwaiFdQsi-27" value="response result" style="edgeStyle=none;orthogonalLoop=1;jettySize=auto;html=1;rounded=0;" edge="1" parent="ubEKFa8QZu3FwaiFdQsi-1">
          <mxGeometry width="100" relative="1" as="geometry">
            <mxPoint x="759.5000000000005" y="840" as="sourcePoint" />
            <mxPoint x="518.8333333333335" y="840" as="targetPoint" />
            <Array as="points">
              <mxPoint x="630" y="840" />
            </Array>
          </mxGeometry>
        </mxCell>
        <mxCell id="ubEKFa8QZu3FwaiFdQsi-28" value="response success" style="edgeStyle=none;orthogonalLoop=1;jettySize=auto;html=1;rounded=0;" edge="1" parent="ubEKFa8QZu3FwaiFdQsi-1">
          <mxGeometry width="100" relative="1" as="geometry">
            <mxPoint x="519.5000000000005" y="880" as="sourcePoint" />
            <mxPoint x="278.8333333333335" y="880" as="targetPoint" />
            <Array as="points">
              <mxPoint x="400" y="880" />
            </Array>
          </mxGeometry>
        </mxCell>
        <mxCell id="ubEKFa8QZu3FwaiFdQsi-29" value="" style="line;strokeWidth=1;fillColor=none;align=left;verticalAlign=middle;spacingTop=-1;spacingLeft=3;spacingRight=3;rotatable=0;labelPosition=right;points=[];portConstraint=eastwest;strokeColor=inherit;" vertex="1" parent="ubEKFa8QZu3FwaiFdQsi-1">
          <mxGeometry x="20" y="750" width="780" height="8" as="geometry" />
        </mxCell>
        <mxCell id="ubEKFa8QZu3FwaiFdQsi-30" value="show all person" style="edgeStyle=none;orthogonalLoop=1;jettySize=auto;html=1;rounded=0;" edge="1" parent="ubEKFa8QZu3FwaiFdQsi-1">
          <mxGeometry width="100" relative="1" as="geometry">
            <mxPoint x="279.5000000000002" y="920" as="sourcePoint" />
            <mxPoint x="38.833333333333485" y="920" as="targetPoint" />
            <Array as="points" />
          </mxGeometry>
        </mxCell>
        <mxCell id="ubEKFa8QZu3FwaiFdQsi-31" value="JWT is not valid" style="text;html=1;align=center;verticalAlign=middle;resizable=0;points=[];autosize=1;strokeColor=none;fillColor=none;" vertex="1" parent="ubEKFa8QZu3FwaiFdQsi-1">
          <mxGeometry x="80" y="640" width="110" height="30" as="geometry" />
        </mxCell>
        <mxCell id="ubEKFa8QZu3FwaiFdQsi-32" value="JWT is valid" style="text;html=1;align=center;verticalAlign=middle;resizable=0;points=[];autosize=1;strokeColor=none;fillColor=none;" vertex="1" parent="ubEKFa8QZu3FwaiFdQsi-1">
          <mxGeometry x="90" y="758" width="90" height="30" as="geometry" />
        </mxCell>
        <mxCell id="ubEKFa8QZu3FwaiFdQsi-33" value="condition" style="shape=umlFrame;whiteSpace=wrap;html=1;pointerEvents=0;" vertex="1" parent="ubEKFa8QZu3FwaiFdQsi-1">
          <mxGeometry x="23" y="200" width="780" height="320" as="geometry" />
        </mxCell>
        <mxCell id="ubEKFa8QZu3FwaiFdQsi-34" value="response unauthorize" style="edgeStyle=none;orthogonalLoop=1;jettySize=auto;html=1;rounded=0;" edge="1" parent="ubEKFa8QZu3FwaiFdQsi-1">
          <mxGeometry width="100" relative="1" as="geometry">
            <mxPoint x="520" y="230" as="sourcePoint" />
            <mxPoint x="280" y="230" as="targetPoint" />
            <Array as="points">
              <mxPoint x="380" y="230" />
            </Array>
          </mxGeometry>
        </mxCell>
        <mxCell id="ubEKFa8QZu3FwaiFdQsi-35" value="show unauthorize error" style="edgeStyle=none;orthogonalLoop=1;jettySize=auto;html=1;rounded=0;" edge="1" parent="ubEKFa8QZu3FwaiFdQsi-1">
          <mxGeometry width="100" relative="1" as="geometry">
            <mxPoint x="280" y="270" as="sourcePoint" />
            <mxPoint x="40" y="270" as="targetPoint" />
            <Array as="points">
              <mxPoint x="170" y="270" />
            </Array>
          </mxGeometry>
        </mxCell>
        <mxCell id="ubEKFa8QZu3FwaiFdQsi-36" value="execute sql select script" style="endArrow=classic;html=1;rounded=0;" edge="1" parent="ubEKFa8QZu3FwaiFdQsi-1">
          <mxGeometry width="50" height="50" relative="1" as="geometry">
            <mxPoint x="520" y="350" as="sourcePoint" />
            <mxPoint x="760" y="350" as="targetPoint" />
            <Array as="points">
              <mxPoint x="630" y="350" />
            </Array>
          </mxGeometry>
        </mxCell>
        <mxCell id="ubEKFa8QZu3FwaiFdQsi-37" value="response data" style="edgeStyle=none;orthogonalLoop=1;jettySize=auto;html=1;rounded=0;" edge="1" parent="ubEKFa8QZu3FwaiFdQsi-1">
          <mxGeometry width="100" relative="1" as="geometry">
            <mxPoint x="760" y="390" as="sourcePoint" />
            <mxPoint x="520" y="390" as="targetPoint" />
            <Array as="points">
              <mxPoint x="630" y="390" />
            </Array>
          </mxGeometry>
        </mxCell>
        <mxCell id="ubEKFa8QZu3FwaiFdQsi-38" value="response data" style="edgeStyle=none;orthogonalLoop=1;jettySize=auto;html=1;rounded=0;" edge="1" parent="ubEKFa8QZu3FwaiFdQsi-1">
          <mxGeometry width="100" relative="1" as="geometry">
            <mxPoint x="520" y="430" as="sourcePoint" />
            <mxPoint x="280" y="430" as="targetPoint" />
            <Array as="points">
              <mxPoint x="400" y="430" />
            </Array>
          </mxGeometry>
        </mxCell>
        <mxCell id="ubEKFa8QZu3FwaiFdQsi-39" value="" style="line;strokeWidth=1;fillColor=none;align=left;verticalAlign=middle;spacingTop=-1;spacingLeft=3;spacingRight=3;rotatable=0;labelPosition=right;points=[];portConstraint=eastwest;strokeColor=inherit;" vertex="1" parent="ubEKFa8QZu3FwaiFdQsi-1">
          <mxGeometry x="20" y="300" width="780" height="8" as="geometry" />
        </mxCell>
        <mxCell id="ubEKFa8QZu3FwaiFdQsi-40" value="show this person in form" style="edgeStyle=none;orthogonalLoop=1;jettySize=auto;html=1;rounded=0;" edge="1" parent="ubEKFa8QZu3FwaiFdQsi-1">
          <mxGeometry width="100" relative="1" as="geometry">
            <mxPoint x="280" y="470" as="sourcePoint" />
            <mxPoint x="40" y="470" as="targetPoint" />
            <Array as="points" />
          </mxGeometry>
        </mxCell>
        <mxCell id="ubEKFa8QZu3FwaiFdQsi-41" value="JWT is not valid" style="text;html=1;align=center;verticalAlign=middle;resizable=0;points=[];autosize=1;strokeColor=none;fillColor=none;" vertex="1" parent="ubEKFa8QZu3FwaiFdQsi-1">
          <mxGeometry x="80" y="190" width="110" height="30" as="geometry" />
        </mxCell>
        <mxCell id="ubEKFa8QZu3FwaiFdQsi-42" value="JWT is valid" style="text;html=1;align=center;verticalAlign=middle;resizable=0;points=[];autosize=1;strokeColor=none;fillColor=none;" vertex="1" parent="ubEKFa8QZu3FwaiFdQsi-1">
          <mxGeometry x="90" y="308" width="90" height="30" as="geometry" />
        </mxCell>
        <mxCell id="ubEKFa8QZu3FwaiFdQsi-43" value="use person ID &amp;amp; JWT to get old data" style="edgeStyle=none;orthogonalLoop=1;jettySize=auto;html=1;rounded=0;" edge="1" parent="ubEKFa8QZu3FwaiFdQsi-1">
          <mxGeometry width="100" relative="1" as="geometry">
            <mxPoint x="279.5" y="160" as="sourcePoint" />
            <mxPoint x="519.5" y="160" as="targetPoint" />
            <Array as="points">
              <mxPoint x="360" y="160" />
            </Array>
          </mxGeometry>
        </mxCell>
      </root>
    </mxGraphModel>
  </diagram>
  <diagram name="4 delete person" id="kBSEitw2pselrCmAPGPW">
    <mxGraphModel dx="1042" dy="626" grid="1" gridSize="10" guides="1" tooltips="1" connect="1" arrows="1" fold="1" page="1" pageScale="1" pageWidth="827" pageHeight="1169" math="0" shadow="0">
      <root>
        <mxCell id="U69-32oq2cmvRbh_TeIF-0" />
        <mxCell id="U69-32oq2cmvRbh_TeIF-1" parent="U69-32oq2cmvRbh_TeIF-0" />
        <mxCell id="U69-32oq2cmvRbh_TeIF-2" value="" style="shape=umlLifeline;perimeter=lifelinePerimeter;whiteSpace=wrap;html=1;container=1;dropTarget=0;collapsible=0;recursiveResize=0;outlineConnect=0;portConstraint=eastwest;newEdgeStyle={&quot;curved&quot;:0,&quot;rounded&quot;:0};participant=umlActor;" vertex="1" parent="U69-32oq2cmvRbh_TeIF-1">
          <mxGeometry x="30" y="40" width="20" height="1040" as="geometry" />
        </mxCell>
        <mxCell id="U69-32oq2cmvRbh_TeIF-3" value="Frontend" style="shape=umlLifeline;perimeter=lifelinePerimeter;whiteSpace=wrap;html=1;container=1;dropTarget=0;collapsible=0;recursiveResize=0;outlineConnect=0;portConstraint=eastwest;newEdgeStyle={&quot;curved&quot;:0,&quot;rounded&quot;:0};" vertex="1" parent="U69-32oq2cmvRbh_TeIF-1">
          <mxGeometry x="230" y="40" width="100" height="1040" as="geometry" />
        </mxCell>
        <mxCell id="U69-32oq2cmvRbh_TeIF-4" value="" style="html=1;points=[[0,0,0,0,5],[0,1,0,0,-5],[1,0,0,0,5],[1,1,0,0,-5]];perimeter=orthogonalPerimeter;outlineConnect=0;targetShapes=umlLifeline;portConstraint=eastwest;newEdgeStyle={&quot;curved&quot;:0,&quot;rounded&quot;:0};" vertex="1" parent="U69-32oq2cmvRbh_TeIF-3">
          <mxGeometry x="45" y="200" width="10" height="40" as="geometry" />
        </mxCell>
        <mxCell id="U69-32oq2cmvRbh_TeIF-5" value="" style="html=1;points=[[0,0,0,0,5],[0,1,0,0,-5],[1,0,0,0,5],[1,1,0,0,-5]];perimeter=orthogonalPerimeter;outlineConnect=0;targetShapes=umlLifeline;portConstraint=eastwest;newEdgeStyle={&quot;curved&quot;:0,&quot;rounded&quot;:0};" vertex="1" parent="U69-32oq2cmvRbh_TeIF-3">
          <mxGeometry x="45" y="400" width="10" height="40" as="geometry" />
        </mxCell>
        <mxCell id="U69-32oq2cmvRbh_TeIF-6" value="Backend" style="shape=umlLifeline;perimeter=lifelinePerimeter;whiteSpace=wrap;html=1;container=1;dropTarget=0;collapsible=0;recursiveResize=0;outlineConnect=0;portConstraint=eastwest;newEdgeStyle={&quot;curved&quot;:0,&quot;rounded&quot;:0};" vertex="1" parent="U69-32oq2cmvRbh_TeIF-1">
          <mxGeometry x="470" y="40" width="100" height="1040" as="geometry" />
        </mxCell>
        <mxCell id="U69-32oq2cmvRbh_TeIF-7" value="" style="html=1;points=[[0,0,0,0,5],[0,1,0,0,-5],[1,0,0,0,5],[1,1,0,0,-5]];perimeter=orthogonalPerimeter;outlineConnect=0;targetShapes=umlLifeline;portConstraint=eastwest;newEdgeStyle={&quot;curved&quot;:0,&quot;rounded&quot;:0};" vertex="1" parent="U69-32oq2cmvRbh_TeIF-6">
          <mxGeometry x="45" y="170" width="10" height="30" as="geometry" />
        </mxCell>
        <mxCell id="U69-32oq2cmvRbh_TeIF-8" value="" style="html=1;points=[[0,0,0,0,5],[0,1,0,0,-5],[1,0,0,0,5],[1,1,0,0,-5]];perimeter=orthogonalPerimeter;outlineConnect=0;targetShapes=umlLifeline;portConstraint=eastwest;newEdgeStyle={&quot;curved&quot;:0,&quot;rounded&quot;:0};" vertex="1" parent="U69-32oq2cmvRbh_TeIF-6">
          <mxGeometry x="45" y="290" width="10" height="30" as="geometry" />
        </mxCell>
        <mxCell id="U69-32oq2cmvRbh_TeIF-9" value="" style="html=1;points=[[0,0,0,0,5],[0,1,0,0,-5],[1,0,0,0,5],[1,1,0,0,-5]];perimeter=orthogonalPerimeter;outlineConnect=0;targetShapes=umlLifeline;portConstraint=eastwest;newEdgeStyle={&quot;curved&quot;:0,&quot;rounded&quot;:0};" vertex="1" parent="U69-32oq2cmvRbh_TeIF-6">
          <mxGeometry x="45" y="360" width="10" height="40" as="geometry" />
        </mxCell>
        <mxCell id="U69-32oq2cmvRbh_TeIF-10" value="Database" style="shape=umlLifeline;perimeter=lifelinePerimeter;whiteSpace=wrap;html=1;container=1;dropTarget=0;collapsible=0;recursiveResize=0;outlineConnect=0;portConstraint=eastwest;newEdgeStyle={&quot;curved&quot;:0,&quot;rounded&quot;:0};" vertex="1" parent="U69-32oq2cmvRbh_TeIF-1">
          <mxGeometry x="710" y="40" width="100" height="1050" as="geometry" />
        </mxCell>
        <mxCell id="U69-32oq2cmvRbh_TeIF-11" value="" style="html=1;points=[[0,0,0,0,5],[0,1,0,0,-5],[1,0,0,0,5],[1,1,0,0,-5]];perimeter=orthogonalPerimeter;outlineConnect=0;targetShapes=umlLifeline;portConstraint=eastwest;newEdgeStyle={&quot;curved&quot;:0,&quot;rounded&quot;:0};" vertex="1" parent="U69-32oq2cmvRbh_TeIF-10">
          <mxGeometry x="45" y="320" width="10" height="40" as="geometry" />
        </mxCell>
        <mxCell id="U69-32oq2cmvRbh_TeIF-12" value="press delete person button" style="edgeStyle=none;orthogonalLoop=1;jettySize=auto;html=1;rounded=0;" edge="1" parent="U69-32oq2cmvRbh_TeIF-1" source="U69-32oq2cmvRbh_TeIF-2" target="U69-32oq2cmvRbh_TeIF-3">
          <mxGeometry width="100" relative="1" as="geometry">
            <mxPoint x="60" y="130" as="sourcePoint" />
            <mxPoint x="160" y="130" as="targetPoint" />
            <Array as="points">
              <mxPoint x="150" y="120" />
            </Array>
          </mxGeometry>
        </mxCell>
        <mxCell id="U69-32oq2cmvRbh_TeIF-13" value="use person ID &amp;amp; JWT to delete" style="edgeStyle=none;orthogonalLoop=1;jettySize=auto;html=1;rounded=0;" edge="1" parent="U69-32oq2cmvRbh_TeIF-1" source="U69-32oq2cmvRbh_TeIF-25">
          <mxGeometry width="100" relative="1" as="geometry">
            <mxPoint x="279.5" y="160" as="sourcePoint" />
            <mxPoint x="519.5" y="160" as="targetPoint" />
            <Array as="points">
              <mxPoint x="380" y="160" />
            </Array>
            <mxPoint as="offset" />
          </mxGeometry>
        </mxCell>
        <mxCell id="U69-32oq2cmvRbh_TeIF-14" value="condition" style="shape=umlFrame;whiteSpace=wrap;html=1;pointerEvents=0;" vertex="1" parent="U69-32oq2cmvRbh_TeIF-1">
          <mxGeometry x="20" y="200" width="780" height="320" as="geometry" />
        </mxCell>
        <mxCell id="U69-32oq2cmvRbh_TeIF-15" value="response unauthorize" style="edgeStyle=none;orthogonalLoop=1;jettySize=auto;html=1;rounded=0;" edge="1" parent="U69-32oq2cmvRbh_TeIF-1">
          <mxGeometry width="100" relative="1" as="geometry">
            <mxPoint x="519.5" y="240" as="sourcePoint" />
            <mxPoint x="279.5" y="240" as="targetPoint" />
            <Array as="points">
              <mxPoint x="380" y="240" />
            </Array>
          </mxGeometry>
        </mxCell>
        <mxCell id="U69-32oq2cmvRbh_TeIF-16" value="show unauthorize error" style="edgeStyle=none;orthogonalLoop=1;jettySize=auto;html=1;rounded=0;" edge="1" parent="U69-32oq2cmvRbh_TeIF-1">
          <mxGeometry width="100" relative="1" as="geometry">
            <mxPoint x="279.5" y="280" as="sourcePoint" />
            <mxPoint x="39.5" y="280" as="targetPoint" />
            <Array as="points">
              <mxPoint x="170" y="280" />
            </Array>
          </mxGeometry>
        </mxCell>
        <mxCell id="U69-32oq2cmvRbh_TeIF-17" value="execute sql delete script" style="endArrow=classic;html=1;rounded=0;" edge="1" parent="U69-32oq2cmvRbh_TeIF-1">
          <mxGeometry width="50" height="50" relative="1" as="geometry">
            <mxPoint x="519.5" y="360" as="sourcePoint" />
            <mxPoint x="759.5" y="360" as="targetPoint" />
            <Array as="points">
              <mxPoint x="630" y="360" />
            </Array>
          </mxGeometry>
        </mxCell>
        <mxCell id="U69-32oq2cmvRbh_TeIF-18" value="response result" style="edgeStyle=none;orthogonalLoop=1;jettySize=auto;html=1;rounded=0;" edge="1" parent="U69-32oq2cmvRbh_TeIF-1">
          <mxGeometry width="100" relative="1" as="geometry">
            <mxPoint x="759.5" y="400" as="sourcePoint" />
            <mxPoint x="519.5" y="400" as="targetPoint" />
            <Array as="points">
              <mxPoint x="630" y="400" />
            </Array>
          </mxGeometry>
        </mxCell>
        <mxCell id="U69-32oq2cmvRbh_TeIF-19" value="response success" style="edgeStyle=none;orthogonalLoop=1;jettySize=auto;html=1;rounded=0;" edge="1" parent="U69-32oq2cmvRbh_TeIF-1">
          <mxGeometry width="100" relative="1" as="geometry">
            <mxPoint x="519.5" y="440" as="sourcePoint" />
            <mxPoint x="279.5" y="440" as="targetPoint" />
            <Array as="points">
              <mxPoint x="400" y="440" />
            </Array>
          </mxGeometry>
        </mxCell>
        <mxCell id="U69-32oq2cmvRbh_TeIF-20" value="" style="line;strokeWidth=1;fillColor=none;align=left;verticalAlign=middle;spacingTop=-1;spacingLeft=3;spacingRight=3;rotatable=0;labelPosition=right;points=[];portConstraint=eastwest;strokeColor=inherit;" vertex="1" parent="U69-32oq2cmvRbh_TeIF-1">
          <mxGeometry x="20" y="310" width="780" height="8" as="geometry" />
        </mxCell>
        <mxCell id="U69-32oq2cmvRbh_TeIF-21" value="show all person" style="edgeStyle=none;orthogonalLoop=1;jettySize=auto;html=1;rounded=0;" edge="1" parent="U69-32oq2cmvRbh_TeIF-1">
          <mxGeometry width="100" relative="1" as="geometry">
            <mxPoint x="279.5" y="480" as="sourcePoint" />
            <mxPoint x="39.5" y="480" as="targetPoint" />
            <Array as="points" />
          </mxGeometry>
        </mxCell>
        <mxCell id="U69-32oq2cmvRbh_TeIF-22" value="JWT is not valid" style="text;html=1;align=center;verticalAlign=middle;resizable=0;points=[];autosize=1;strokeColor=none;fillColor=none;" vertex="1" parent="U69-32oq2cmvRbh_TeIF-1">
          <mxGeometry x="80" y="200" width="110" height="30" as="geometry" />
        </mxCell>
        <mxCell id="U69-32oq2cmvRbh_TeIF-23" value="JWT is valid" style="text;html=1;align=center;verticalAlign=middle;resizable=0;points=[];autosize=1;strokeColor=none;fillColor=none;" vertex="1" parent="U69-32oq2cmvRbh_TeIF-1">
          <mxGeometry x="90" y="318" width="90" height="30" as="geometry" />
        </mxCell>
        <mxCell id="U69-32oq2cmvRbh_TeIF-24" value="" style="edgeStyle=none;orthogonalLoop=1;jettySize=auto;html=1;rounded=0;" edge="1" parent="U69-32oq2cmvRbh_TeIF-1" target="U69-32oq2cmvRbh_TeIF-25">
          <mxGeometry width="100" relative="1" as="geometry">
            <mxPoint x="279.5" y="160" as="sourcePoint" />
            <mxPoint x="519.5" y="160" as="targetPoint" />
            <Array as="points" />
            <mxPoint as="offset" />
          </mxGeometry>
        </mxCell>
        <mxCell id="U69-32oq2cmvRbh_TeIF-25" value="" style="html=1;points=[[0,0,0,0,5],[0,1,0,0,-5],[1,0,0,0,5],[1,1,0,0,-5]];perimeter=orthogonalPerimeter;outlineConnect=0;targetShapes=umlLifeline;portConstraint=eastwest;newEdgeStyle={&quot;curved&quot;:0,&quot;rounded&quot;:0};" vertex="1" parent="U69-32oq2cmvRbh_TeIF-1">
          <mxGeometry x="275" y="120" width="10" height="40" as="geometry" />
        </mxCell>
      </root>
    </mxGraphModel>
  </diagram>
  <diagram name="5 read person log" id="4dOJaWcA7xXq6krnPlQR">
    <mxGraphModel dx="1042" dy="626" grid="1" gridSize="10" guides="1" tooltips="1" connect="1" arrows="1" fold="1" page="1" pageScale="1" pageWidth="827" pageHeight="1169" math="0" shadow="0">
      <root>
        <mxCell id="exE8vFPMumSDoDnofb47-0" />
        <mxCell id="exE8vFPMumSDoDnofb47-1" parent="exE8vFPMumSDoDnofb47-0" />
        <mxCell id="exE8vFPMumSDoDnofb47-2" value="" style="shape=umlLifeline;perimeter=lifelinePerimeter;whiteSpace=wrap;html=1;container=1;dropTarget=0;collapsible=0;recursiveResize=0;outlineConnect=0;portConstraint=eastwest;newEdgeStyle={&quot;curved&quot;:0,&quot;rounded&quot;:0};participant=umlActor;" vertex="1" parent="exE8vFPMumSDoDnofb47-1">
          <mxGeometry x="30" y="40" width="20" height="1040" as="geometry" />
        </mxCell>
        <mxCell id="exE8vFPMumSDoDnofb47-3" value="Frontend" style="shape=umlLifeline;perimeter=lifelinePerimeter;whiteSpace=wrap;html=1;container=1;dropTarget=0;collapsible=0;recursiveResize=0;outlineConnect=0;portConstraint=eastwest;newEdgeStyle={&quot;curved&quot;:0,&quot;rounded&quot;:0};" vertex="1" parent="exE8vFPMumSDoDnofb47-1">
          <mxGeometry x="230" y="40" width="100" height="1040" as="geometry" />
        </mxCell>
        <mxCell id="exE8vFPMumSDoDnofb47-4" value="" style="html=1;points=[[0,0,0,0,5],[0,1,0,0,-5],[1,0,0,0,5],[1,1,0,0,-5]];perimeter=orthogonalPerimeter;outlineConnect=0;targetShapes=umlLifeline;portConstraint=eastwest;newEdgeStyle={&quot;curved&quot;:0,&quot;rounded&quot;:0};" vertex="1" parent="exE8vFPMumSDoDnofb47-3">
          <mxGeometry x="45" y="80" width="10" height="40" as="geometry" />
        </mxCell>
        <mxCell id="exE8vFPMumSDoDnofb47-5" value="" style="html=1;points=[[0,0,0,0,5],[0,1,0,0,-5],[1,0,0,0,5],[1,1,0,0,-5]];perimeter=orthogonalPerimeter;outlineConnect=0;targetShapes=umlLifeline;portConstraint=eastwest;newEdgeStyle={&quot;curved&quot;:0,&quot;rounded&quot;:0};" vertex="1" parent="exE8vFPMumSDoDnofb47-3">
          <mxGeometry x="45" y="200" width="10" height="40" as="geometry" />
        </mxCell>
        <mxCell id="exE8vFPMumSDoDnofb47-6" value="" style="html=1;points=[[0,0,0,0,5],[0,1,0,0,-5],[1,0,0,0,5],[1,1,0,0,-5]];perimeter=orthogonalPerimeter;outlineConnect=0;targetShapes=umlLifeline;portConstraint=eastwest;newEdgeStyle={&quot;curved&quot;:0,&quot;rounded&quot;:0};" vertex="1" parent="exE8vFPMumSDoDnofb47-3">
          <mxGeometry x="45" y="400" width="10" height="40" as="geometry" />
        </mxCell>
        <mxCell id="exE8vFPMumSDoDnofb47-7" value="Backend" style="shape=umlLifeline;perimeter=lifelinePerimeter;whiteSpace=wrap;html=1;container=1;dropTarget=0;collapsible=0;recursiveResize=0;outlineConnect=0;portConstraint=eastwest;newEdgeStyle={&quot;curved&quot;:0,&quot;rounded&quot;:0};" vertex="1" parent="exE8vFPMumSDoDnofb47-1">
          <mxGeometry x="470" y="40" width="100" height="1040" as="geometry" />
        </mxCell>
        <mxCell id="exE8vFPMumSDoDnofb47-8" value="" style="html=1;points=[[0,0,0,0,5],[0,1,0,0,-5],[1,0,0,0,5],[1,1,0,0,-5]];perimeter=orthogonalPerimeter;outlineConnect=0;targetShapes=umlLifeline;portConstraint=eastwest;newEdgeStyle={&quot;curved&quot;:0,&quot;rounded&quot;:0};" vertex="1" parent="exE8vFPMumSDoDnofb47-7">
          <mxGeometry x="45" y="180" width="10" height="20" as="geometry" />
        </mxCell>
        <mxCell id="exE8vFPMumSDoDnofb47-9" value="" style="html=1;points=[[0,0,0,0,5],[0,1,0,0,-5],[1,0,0,0,5],[1,1,0,0,-5]];perimeter=orthogonalPerimeter;outlineConnect=0;targetShapes=umlLifeline;portConstraint=eastwest;newEdgeStyle={&quot;curved&quot;:0,&quot;rounded&quot;:0};" vertex="1" parent="exE8vFPMumSDoDnofb47-7">
          <mxGeometry x="45" y="300" width="10" height="20" as="geometry" />
        </mxCell>
        <mxCell id="exE8vFPMumSDoDnofb47-10" value="" style="html=1;points=[[0,0,0,0,5],[0,1,0,0,-5],[1,0,0,0,5],[1,1,0,0,-5]];perimeter=orthogonalPerimeter;outlineConnect=0;targetShapes=umlLifeline;portConstraint=eastwest;newEdgeStyle={&quot;curved&quot;:0,&quot;rounded&quot;:0};" vertex="1" parent="exE8vFPMumSDoDnofb47-7">
          <mxGeometry x="45" y="360" width="10" height="40" as="geometry" />
        </mxCell>
        <mxCell id="exE8vFPMumSDoDnofb47-11" value="Database" style="shape=umlLifeline;perimeter=lifelinePerimeter;whiteSpace=wrap;html=1;container=1;dropTarget=0;collapsible=0;recursiveResize=0;outlineConnect=0;portConstraint=eastwest;newEdgeStyle={&quot;curved&quot;:0,&quot;rounded&quot;:0};" vertex="1" parent="exE8vFPMumSDoDnofb47-1">
          <mxGeometry x="710" y="40" width="100" height="1050" as="geometry" />
        </mxCell>
        <mxCell id="exE8vFPMumSDoDnofb47-12" value="" style="html=1;points=[[0,0,0,0,5],[0,1,0,0,-5],[1,0,0,0,5],[1,1,0,0,-5]];perimeter=orthogonalPerimeter;outlineConnect=0;targetShapes=umlLifeline;portConstraint=eastwest;newEdgeStyle={&quot;curved&quot;:0,&quot;rounded&quot;:0};" vertex="1" parent="exE8vFPMumSDoDnofb47-11">
          <mxGeometry x="45" y="320" width="10" height="40" as="geometry" />
        </mxCell>
        <mxCell id="exE8vFPMumSDoDnofb47-13" value="access person log page" style="edgeStyle=none;orthogonalLoop=1;jettySize=auto;html=1;rounded=0;" edge="1" parent="exE8vFPMumSDoDnofb47-1" source="exE8vFPMumSDoDnofb47-2" target="exE8vFPMumSDoDnofb47-3">
          <mxGeometry width="100" relative="1" as="geometry">
            <mxPoint x="60" y="130" as="sourcePoint" />
            <mxPoint x="160" y="130" as="targetPoint" />
            <Array as="points">
              <mxPoint x="150" y="120" />
            </Array>
          </mxGeometry>
        </mxCell>
        <mxCell id="exE8vFPMumSDoDnofb47-14" value="use JWT to get all person log" style="edgeStyle=none;orthogonalLoop=1;jettySize=auto;html=1;rounded=0;" edge="1" parent="exE8vFPMumSDoDnofb47-1">
          <mxGeometry width="100" relative="1" as="geometry">
            <mxPoint x="279.54761904761926" y="160" as="sourcePoint" />
            <mxPoint x="519.5" y="160" as="targetPoint" />
            <Array as="points">
              <mxPoint x="380" y="160" />
            </Array>
          </mxGeometry>
        </mxCell>
        <mxCell id="exE8vFPMumSDoDnofb47-15" value="condition" style="shape=umlFrame;whiteSpace=wrap;html=1;pointerEvents=0;" vertex="1" parent="exE8vFPMumSDoDnofb47-1">
          <mxGeometry x="20" y="200" width="780" height="320" as="geometry" />
        </mxCell>
        <mxCell id="exE8vFPMumSDoDnofb47-16" value="response unauthorize" style="edgeStyle=none;orthogonalLoop=1;jettySize=auto;html=1;rounded=0;" edge="1" parent="exE8vFPMumSDoDnofb47-1">
          <mxGeometry width="100" relative="1" as="geometry">
            <mxPoint x="519.5" y="240" as="sourcePoint" />
            <mxPoint x="279.54761904761926" y="240" as="targetPoint" />
            <Array as="points">
              <mxPoint x="380" y="240" />
            </Array>
          </mxGeometry>
        </mxCell>
        <mxCell id="exE8vFPMumSDoDnofb47-17" value="show unauthorize error" style="edgeStyle=none;orthogonalLoop=1;jettySize=auto;html=1;rounded=0;" edge="1" parent="exE8vFPMumSDoDnofb47-1">
          <mxGeometry width="100" relative="1" as="geometry">
            <mxPoint x="279.5" y="280" as="sourcePoint" />
            <mxPoint x="39.547619047619264" y="280" as="targetPoint" />
            <Array as="points">
              <mxPoint x="170" y="280" />
            </Array>
          </mxGeometry>
        </mxCell>
        <mxCell id="exE8vFPMumSDoDnofb47-18" value="execute sql select script" style="endArrow=classic;html=1;rounded=0;" edge="1" parent="exE8vFPMumSDoDnofb47-1">
          <mxGeometry width="50" height="50" relative="1" as="geometry">
            <mxPoint x="519.5476190476193" y="360" as="sourcePoint" />
            <mxPoint x="759.5" y="360" as="targetPoint" />
            <Array as="points">
              <mxPoint x="630" y="360" />
            </Array>
          </mxGeometry>
        </mxCell>
        <mxCell id="exE8vFPMumSDoDnofb47-19" value="response data" style="edgeStyle=none;orthogonalLoop=1;jettySize=auto;html=1;rounded=0;" edge="1" parent="exE8vFPMumSDoDnofb47-1">
          <mxGeometry width="100" relative="1" as="geometry">
            <mxPoint x="759.5" y="400" as="sourcePoint" />
            <mxPoint x="519.5476190476193" y="400" as="targetPoint" />
            <Array as="points">
              <mxPoint x="630" y="400" />
            </Array>
          </mxGeometry>
        </mxCell>
        <mxCell id="exE8vFPMumSDoDnofb47-20" value="response data" style="edgeStyle=none;orthogonalLoop=1;jettySize=auto;html=1;rounded=0;" edge="1" parent="exE8vFPMumSDoDnofb47-1">
          <mxGeometry width="100" relative="1" as="geometry">
            <mxPoint x="519.5" y="440" as="sourcePoint" />
            <mxPoint x="279.54761904761926" y="440" as="targetPoint" />
            <Array as="points">
              <mxPoint x="400" y="440" />
            </Array>
          </mxGeometry>
        </mxCell>
        <mxCell id="exE8vFPMumSDoDnofb47-21" value="" style="line;strokeWidth=1;fillColor=none;align=left;verticalAlign=middle;spacingTop=-1;spacingLeft=3;spacingRight=3;rotatable=0;labelPosition=right;points=[];portConstraint=eastwest;strokeColor=inherit;" vertex="1" parent="exE8vFPMumSDoDnofb47-1">
          <mxGeometry x="20" y="310" width="780" height="8" as="geometry" />
        </mxCell>
        <mxCell id="exE8vFPMumSDoDnofb47-22" value="show all person log" style="edgeStyle=none;orthogonalLoop=1;jettySize=auto;html=1;rounded=0;" edge="1" parent="exE8vFPMumSDoDnofb47-1">
          <mxGeometry width="100" relative="1" as="geometry">
            <mxPoint x="279.5" y="480.0000000000002" as="sourcePoint" />
            <mxPoint x="39.547619047619264" y="480.0000000000002" as="targetPoint" />
            <Array as="points" />
          </mxGeometry>
        </mxCell>
        <mxCell id="exE8vFPMumSDoDnofb47-23" value="JWT is not valid" style="text;html=1;align=center;verticalAlign=middle;resizable=0;points=[];autosize=1;strokeColor=none;fillColor=none;" vertex="1" parent="exE8vFPMumSDoDnofb47-1">
          <mxGeometry x="80" y="200" width="110" height="30" as="geometry" />
        </mxCell>
        <mxCell id="exE8vFPMumSDoDnofb47-24" value="JWT is valid" style="text;html=1;align=center;verticalAlign=middle;resizable=0;points=[];autosize=1;strokeColor=none;fillColor=none;" vertex="1" parent="exE8vFPMumSDoDnofb47-1">
          <mxGeometry x="90" y="318" width="90" height="30" as="geometry" />
        </mxCell>
      </root>
    </mxGraphModel>
  </diagram>
  <diagram name="6 read communication event log" id="YmwHGap1AR3nWxEzcYmj">
    <mxGraphModel dx="1042" dy="626" grid="1" gridSize="10" guides="1" tooltips="1" connect="1" arrows="1" fold="1" page="1" pageScale="1" pageWidth="827" pageHeight="1169" math="0" shadow="0">
      <root>
        <mxCell id="QsFlugxzZ6us1IkAnW7E-0" />
        <mxCell id="QsFlugxzZ6us1IkAnW7E-1" parent="QsFlugxzZ6us1IkAnW7E-0" />
        <mxCell id="QsFlugxzZ6us1IkAnW7E-2" value="" style="shape=umlLifeline;perimeter=lifelinePerimeter;whiteSpace=wrap;html=1;container=1;dropTarget=0;collapsible=0;recursiveResize=0;outlineConnect=0;portConstraint=eastwest;newEdgeStyle={&quot;curved&quot;:0,&quot;rounded&quot;:0};participant=umlActor;" vertex="1" parent="QsFlugxzZ6us1IkAnW7E-1">
          <mxGeometry x="30" y="40" width="20" height="1040" as="geometry" />
        </mxCell>
        <mxCell id="QsFlugxzZ6us1IkAnW7E-3" value="Frontend" style="shape=umlLifeline;perimeter=lifelinePerimeter;whiteSpace=wrap;html=1;container=1;dropTarget=0;collapsible=0;recursiveResize=0;outlineConnect=0;portConstraint=eastwest;newEdgeStyle={&quot;curved&quot;:0,&quot;rounded&quot;:0};" vertex="1" parent="QsFlugxzZ6us1IkAnW7E-1">
          <mxGeometry x="230" y="40" width="100" height="1040" as="geometry" />
        </mxCell>
        <mxCell id="QsFlugxzZ6us1IkAnW7E-4" value="" style="html=1;points=[[0,0,0,0,5],[0,1,0,0,-5],[1,0,0,0,5],[1,1,0,0,-5]];perimeter=orthogonalPerimeter;outlineConnect=0;targetShapes=umlLifeline;portConstraint=eastwest;newEdgeStyle={&quot;curved&quot;:0,&quot;rounded&quot;:0};" vertex="1" parent="QsFlugxzZ6us1IkAnW7E-3">
          <mxGeometry x="45" y="80" width="10" height="40" as="geometry" />
        </mxCell>
        <mxCell id="QsFlugxzZ6us1IkAnW7E-5" value="" style="html=1;points=[[0,0,0,0,5],[0,1,0,0,-5],[1,0,0,0,5],[1,1,0,0,-5]];perimeter=orthogonalPerimeter;outlineConnect=0;targetShapes=umlLifeline;portConstraint=eastwest;newEdgeStyle={&quot;curved&quot;:0,&quot;rounded&quot;:0};" vertex="1" parent="QsFlugxzZ6us1IkAnW7E-3">
          <mxGeometry x="45" y="200" width="10" height="40" as="geometry" />
        </mxCell>
        <mxCell id="QsFlugxzZ6us1IkAnW7E-6" value="" style="html=1;points=[[0,0,0,0,5],[0,1,0,0,-5],[1,0,0,0,5],[1,1,0,0,-5]];perimeter=orthogonalPerimeter;outlineConnect=0;targetShapes=umlLifeline;portConstraint=eastwest;newEdgeStyle={&quot;curved&quot;:0,&quot;rounded&quot;:0};" vertex="1" parent="QsFlugxzZ6us1IkAnW7E-3">
          <mxGeometry x="45" y="400" width="10" height="40" as="geometry" />
        </mxCell>
        <mxCell id="QsFlugxzZ6us1IkAnW7E-7" value="Backend" style="shape=umlLifeline;perimeter=lifelinePerimeter;whiteSpace=wrap;html=1;container=1;dropTarget=0;collapsible=0;recursiveResize=0;outlineConnect=0;portConstraint=eastwest;newEdgeStyle={&quot;curved&quot;:0,&quot;rounded&quot;:0};" vertex="1" parent="QsFlugxzZ6us1IkAnW7E-1">
          <mxGeometry x="470" y="40" width="100" height="1040" as="geometry" />
        </mxCell>
        <mxCell id="QsFlugxzZ6us1IkAnW7E-8" value="" style="html=1;points=[[0,0,0,0,5],[0,1,0,0,-5],[1,0,0,0,5],[1,1,0,0,-5]];perimeter=orthogonalPerimeter;outlineConnect=0;targetShapes=umlLifeline;portConstraint=eastwest;newEdgeStyle={&quot;curved&quot;:0,&quot;rounded&quot;:0};" vertex="1" parent="QsFlugxzZ6us1IkAnW7E-7">
          <mxGeometry x="45" y="180" width="10" height="20" as="geometry" />
        </mxCell>
        <mxCell id="QsFlugxzZ6us1IkAnW7E-9" value="" style="html=1;points=[[0,0,0,0,5],[0,1,0,0,-5],[1,0,0,0,5],[1,1,0,0,-5]];perimeter=orthogonalPerimeter;outlineConnect=0;targetShapes=umlLifeline;portConstraint=eastwest;newEdgeStyle={&quot;curved&quot;:0,&quot;rounded&quot;:0};" vertex="1" parent="QsFlugxzZ6us1IkAnW7E-7">
          <mxGeometry x="45" y="300" width="10" height="20" as="geometry" />
        </mxCell>
        <mxCell id="QsFlugxzZ6us1IkAnW7E-10" value="" style="html=1;points=[[0,0,0,0,5],[0,1,0,0,-5],[1,0,0,0,5],[1,1,0,0,-5]];perimeter=orthogonalPerimeter;outlineConnect=0;targetShapes=umlLifeline;portConstraint=eastwest;newEdgeStyle={&quot;curved&quot;:0,&quot;rounded&quot;:0};" vertex="1" parent="QsFlugxzZ6us1IkAnW7E-7">
          <mxGeometry x="45" y="360" width="10" height="40" as="geometry" />
        </mxCell>
        <mxCell id="QsFlugxzZ6us1IkAnW7E-11" value="Database" style="shape=umlLifeline;perimeter=lifelinePerimeter;whiteSpace=wrap;html=1;container=1;dropTarget=0;collapsible=0;recursiveResize=0;outlineConnect=0;portConstraint=eastwest;newEdgeStyle={&quot;curved&quot;:0,&quot;rounded&quot;:0};" vertex="1" parent="QsFlugxzZ6us1IkAnW7E-1">
          <mxGeometry x="710" y="40" width="100" height="1050" as="geometry" />
        </mxCell>
        <mxCell id="QsFlugxzZ6us1IkAnW7E-12" value="" style="html=1;points=[[0,0,0,0,5],[0,1,0,0,-5],[1,0,0,0,5],[1,1,0,0,-5]];perimeter=orthogonalPerimeter;outlineConnect=0;targetShapes=umlLifeline;portConstraint=eastwest;newEdgeStyle={&quot;curved&quot;:0,&quot;rounded&quot;:0};" vertex="1" parent="QsFlugxzZ6us1IkAnW7E-11">
          <mxGeometry x="45" y="320" width="10" height="40" as="geometry" />
        </mxCell>
        <mxCell id="QsFlugxzZ6us1IkAnW7E-13" value="access communication event log page" style="edgeStyle=none;orthogonalLoop=1;jettySize=auto;html=1;rounded=0;" edge="1" parent="QsFlugxzZ6us1IkAnW7E-1" source="QsFlugxzZ6us1IkAnW7E-2" target="QsFlugxzZ6us1IkAnW7E-3">
          <mxGeometry width="100" relative="1" as="geometry">
            <mxPoint x="60" y="130" as="sourcePoint" />
            <mxPoint x="160" y="130" as="targetPoint" />
            <Array as="points">
              <mxPoint x="150" y="120" />
            </Array>
          </mxGeometry>
        </mxCell>
        <mxCell id="QsFlugxzZ6us1IkAnW7E-14" value="use JWT to get all communication event log" style="edgeStyle=none;orthogonalLoop=1;jettySize=auto;html=1;rounded=0;" edge="1" parent="QsFlugxzZ6us1IkAnW7E-1">
          <mxGeometry width="100" relative="1" as="geometry">
            <mxPoint x="279.54761904761926" y="160" as="sourcePoint" />
            <mxPoint x="519.5" y="160" as="targetPoint" />
            <Array as="points">
              <mxPoint x="380" y="160" />
            </Array>
          </mxGeometry>
        </mxCell>
        <mxCell id="QsFlugxzZ6us1IkAnW7E-15" value="condition" style="shape=umlFrame;whiteSpace=wrap;html=1;pointerEvents=0;" vertex="1" parent="QsFlugxzZ6us1IkAnW7E-1">
          <mxGeometry x="20" y="200" width="780" height="320" as="geometry" />
        </mxCell>
        <mxCell id="QsFlugxzZ6us1IkAnW7E-16" value="response unauthorize" style="edgeStyle=none;orthogonalLoop=1;jettySize=auto;html=1;rounded=0;" edge="1" parent="QsFlugxzZ6us1IkAnW7E-1">
          <mxGeometry width="100" relative="1" as="geometry">
            <mxPoint x="519.5" y="240" as="sourcePoint" />
            <mxPoint x="279.54761904761926" y="240" as="targetPoint" />
            <Array as="points">
              <mxPoint x="380" y="240" />
            </Array>
          </mxGeometry>
        </mxCell>
        <mxCell id="QsFlugxzZ6us1IkAnW7E-17" value="show unauthorize error" style="edgeStyle=none;orthogonalLoop=1;jettySize=auto;html=1;rounded=0;" edge="1" parent="QsFlugxzZ6us1IkAnW7E-1">
          <mxGeometry width="100" relative="1" as="geometry">
            <mxPoint x="279.5" y="280" as="sourcePoint" />
            <mxPoint x="39.547619047619264" y="280" as="targetPoint" />
            <Array as="points">
              <mxPoint x="170" y="280" />
            </Array>
          </mxGeometry>
        </mxCell>
        <mxCell id="QsFlugxzZ6us1IkAnW7E-18" value="execute sql select script" style="endArrow=classic;html=1;rounded=0;" edge="1" parent="QsFlugxzZ6us1IkAnW7E-1">
          <mxGeometry width="50" height="50" relative="1" as="geometry">
            <mxPoint x="519.5476190476193" y="360" as="sourcePoint" />
            <mxPoint x="759.5" y="360" as="targetPoint" />
            <Array as="points">
              <mxPoint x="630" y="360" />
            </Array>
          </mxGeometry>
        </mxCell>
        <mxCell id="QsFlugxzZ6us1IkAnW7E-19" value="response data" style="edgeStyle=none;orthogonalLoop=1;jettySize=auto;html=1;rounded=0;" edge="1" parent="QsFlugxzZ6us1IkAnW7E-1">
          <mxGeometry width="100" relative="1" as="geometry">
            <mxPoint x="759.5" y="400" as="sourcePoint" />
            <mxPoint x="519.5476190476193" y="400" as="targetPoint" />
            <Array as="points">
              <mxPoint x="630" y="400" />
            </Array>
          </mxGeometry>
        </mxCell>
        <mxCell id="QsFlugxzZ6us1IkAnW7E-20" value="response data" style="edgeStyle=none;orthogonalLoop=1;jettySize=auto;html=1;rounded=0;" edge="1" parent="QsFlugxzZ6us1IkAnW7E-1">
          <mxGeometry width="100" relative="1" as="geometry">
            <mxPoint x="519.5" y="440" as="sourcePoint" />
            <mxPoint x="279.54761904761926" y="440" as="targetPoint" />
            <Array as="points">
              <mxPoint x="400" y="440" />
            </Array>
          </mxGeometry>
        </mxCell>
        <mxCell id="QsFlugxzZ6us1IkAnW7E-21" value="" style="line;strokeWidth=1;fillColor=none;align=left;verticalAlign=middle;spacingTop=-1;spacingLeft=3;spacingRight=3;rotatable=0;labelPosition=right;points=[];portConstraint=eastwest;strokeColor=inherit;" vertex="1" parent="QsFlugxzZ6us1IkAnW7E-1">
          <mxGeometry x="20" y="310" width="780" height="8" as="geometry" />
        </mxCell>
        <mxCell id="QsFlugxzZ6us1IkAnW7E-22" value="show all communication event log" style="edgeStyle=none;orthogonalLoop=1;jettySize=auto;html=1;rounded=0;" edge="1" parent="QsFlugxzZ6us1IkAnW7E-1">
          <mxGeometry width="100" relative="1" as="geometry">
            <mxPoint x="279.5" y="480.0000000000002" as="sourcePoint" />
            <mxPoint x="39.547619047619264" y="480.0000000000002" as="targetPoint" />
            <Array as="points" />
          </mxGeometry>
        </mxCell>
        <mxCell id="QsFlugxzZ6us1IkAnW7E-23" value="JWT is not valid" style="text;html=1;align=center;verticalAlign=middle;resizable=0;points=[];autosize=1;strokeColor=none;fillColor=none;" vertex="1" parent="QsFlugxzZ6us1IkAnW7E-1">
          <mxGeometry x="80" y="200" width="110" height="30" as="geometry" />
        </mxCell>
        <mxCell id="QsFlugxzZ6us1IkAnW7E-24" value="JWT is valid" style="text;html=1;align=center;verticalAlign=middle;resizable=0;points=[];autosize=1;strokeColor=none;fillColor=none;" vertex="1" parent="QsFlugxzZ6us1IkAnW7E-1">
          <mxGeometry x="90" y="318" width="90" height="30" as="geometry" />
        </mxCell>
      </root>
    </mxGraphModel>
  </diagram>
  <diagram name="create mold" id="0H6iMmOWljYtbXCyi1gU">
    <mxGraphModel dx="1042" dy="626" grid="1" gridSize="10" guides="1" tooltips="1" connect="1" arrows="1" fold="1" page="1" pageScale="1" pageWidth="827" pageHeight="1169" math="0" shadow="0">
      <root>
        <mxCell id="0" />
        <mxCell id="1" parent="0" />
        <mxCell id="0sfk7AXrvDm8hyk8Vwgc-1" value="" style="shape=umlLifeline;perimeter=lifelinePerimeter;whiteSpace=wrap;html=1;container=1;dropTarget=0;collapsible=0;recursiveResize=0;outlineConnect=0;portConstraint=eastwest;newEdgeStyle={&quot;curved&quot;:0,&quot;rounded&quot;:0};participant=umlActor;" parent="1" vertex="1">
          <mxGeometry x="30" y="40" width="20" height="1040" as="geometry" />
        </mxCell>
        <mxCell id="0sfk7AXrvDm8hyk8Vwgc-2" value="Frontend" style="shape=umlLifeline;perimeter=lifelinePerimeter;whiteSpace=wrap;html=1;container=1;dropTarget=0;collapsible=0;recursiveResize=0;outlineConnect=0;portConstraint=eastwest;newEdgeStyle={&quot;curved&quot;:0,&quot;rounded&quot;:0};" parent="1" vertex="1">
          <mxGeometry x="230" y="40" width="100" height="1040" as="geometry" />
        </mxCell>
        <mxCell id="fwfbrdMr7wHU_aNQO-xc-1" value="" style="html=1;points=[[0,0,0,0,5],[0,1,0,0,-5],[1,0,0,0,5],[1,1,0,0,-5]];perimeter=orthogonalPerimeter;outlineConnect=0;targetShapes=umlLifeline;portConstraint=eastwest;newEdgeStyle={&quot;curved&quot;:0,&quot;rounded&quot;:0};" parent="0sfk7AXrvDm8hyk8Vwgc-2" vertex="1">
          <mxGeometry x="45" y="80" width="10" height="40" as="geometry" />
        </mxCell>
        <mxCell id="fwfbrdMr7wHU_aNQO-xc-2" value="" style="html=1;points=[[0,0,0,0,5],[0,1,0,0,-5],[1,0,0,0,5],[1,1,0,0,-5]];perimeter=orthogonalPerimeter;outlineConnect=0;targetShapes=umlLifeline;portConstraint=eastwest;newEdgeStyle={&quot;curved&quot;:0,&quot;rounded&quot;:0};" parent="0sfk7AXrvDm8hyk8Vwgc-2" vertex="1">
          <mxGeometry x="45" y="160" width="10" height="40" as="geometry" />
        </mxCell>
        <mxCell id="fwfbrdMr7wHU_aNQO-xc-3" value="" style="html=1;points=[[0,0,0,0,5],[0,1,0,0,-5],[1,0,0,0,5],[1,1,0,0,-5]];perimeter=orthogonalPerimeter;outlineConnect=0;targetShapes=umlLifeline;portConstraint=eastwest;newEdgeStyle={&quot;curved&quot;:0,&quot;rounded&quot;:0};" parent="0sfk7AXrvDm8hyk8Vwgc-2" vertex="1">
          <mxGeometry x="45" y="280" width="10" height="40" as="geometry" />
        </mxCell>
        <mxCell id="fwfbrdMr7wHU_aNQO-xc-4" value="" style="html=1;points=[[0,0,0,0,5],[0,1,0,0,-5],[1,0,0,0,5],[1,1,0,0,-5]];perimeter=orthogonalPerimeter;outlineConnect=0;targetShapes=umlLifeline;portConstraint=eastwest;newEdgeStyle={&quot;curved&quot;:0,&quot;rounded&quot;:0};" parent="0sfk7AXrvDm8hyk8Vwgc-2" vertex="1">
          <mxGeometry x="45" y="480" width="10" height="40" as="geometry" />
        </mxCell>
        <mxCell id="0sfk7AXrvDm8hyk8Vwgc-3" value="Backend" style="shape=umlLifeline;perimeter=lifelinePerimeter;whiteSpace=wrap;html=1;container=1;dropTarget=0;collapsible=0;recursiveResize=0;outlineConnect=0;portConstraint=eastwest;newEdgeStyle={&quot;curved&quot;:0,&quot;rounded&quot;:0};" parent="1" vertex="1">
          <mxGeometry x="470" y="40" width="100" height="1040" as="geometry" />
        </mxCell>
        <mxCell id="fwfbrdMr7wHU_aNQO-xc-6" value="" style="html=1;points=[[0,0,0,0,5],[0,1,0,0,-5],[1,0,0,0,5],[1,1,0,0,-5]];perimeter=orthogonalPerimeter;outlineConnect=0;targetShapes=umlLifeline;portConstraint=eastwest;newEdgeStyle={&quot;curved&quot;:0,&quot;rounded&quot;:0};" parent="0sfk7AXrvDm8hyk8Vwgc-3" vertex="1">
          <mxGeometry x="45" y="260" width="10" height="20" as="geometry" />
        </mxCell>
        <mxCell id="fwfbrdMr7wHU_aNQO-xc-8" value="" style="html=1;points=[[0,0,0,0,5],[0,1,0,0,-5],[1,0,0,0,5],[1,1,0,0,-5]];perimeter=orthogonalPerimeter;outlineConnect=0;targetShapes=umlLifeline;portConstraint=eastwest;newEdgeStyle={&quot;curved&quot;:0,&quot;rounded&quot;:0};" parent="0sfk7AXrvDm8hyk8Vwgc-3" vertex="1">
          <mxGeometry x="45" y="440" width="10" height="40" as="geometry" />
        </mxCell>
        <mxCell id="fwfbrdMr7wHU_aNQO-xc-9" value="" style="html=1;points=[[0,0,0,0,5],[0,1,0,0,-5],[1,0,0,0,5],[1,1,0,0,-5]];perimeter=orthogonalPerimeter;outlineConnect=0;targetShapes=umlLifeline;portConstraint=eastwest;newEdgeStyle={&quot;curved&quot;:0,&quot;rounded&quot;:0};" parent="0sfk7AXrvDm8hyk8Vwgc-3" vertex="1">
          <mxGeometry x="45" y="380" width="10" height="20" as="geometry" />
        </mxCell>
        <mxCell id="0sfk7AXrvDm8hyk8Vwgc-4" value="Database" style="shape=umlLifeline;perimeter=lifelinePerimeter;whiteSpace=wrap;html=1;container=1;dropTarget=0;collapsible=0;recursiveResize=0;outlineConnect=0;portConstraint=eastwest;newEdgeStyle={&quot;curved&quot;:0,&quot;rounded&quot;:0};" parent="1" vertex="1">
          <mxGeometry x="710" y="40" width="100" height="1050" as="geometry" />
        </mxCell>
        <mxCell id="fwfbrdMr7wHU_aNQO-xc-7" value="" style="html=1;points=[[0,0,0,0,5],[0,1,0,0,-5],[1,0,0,0,5],[1,1,0,0,-5]];perimeter=orthogonalPerimeter;outlineConnect=0;targetShapes=umlLifeline;portConstraint=eastwest;newEdgeStyle={&quot;curved&quot;:0,&quot;rounded&quot;:0};" parent="0sfk7AXrvDm8hyk8Vwgc-4" vertex="1">
          <mxGeometry x="45" y="400" width="10" height="40" as="geometry" />
        </mxCell>
        <mxCell id="yc71Wg18bdyl_Ytq6EHl-1" value="access create mold page" style="edgeStyle=none;orthogonalLoop=1;jettySize=auto;html=1;rounded=0;" parent="1" source="0sfk7AXrvDm8hyk8Vwgc-1" target="0sfk7AXrvDm8hyk8Vwgc-2" edge="1">
          <mxGeometry width="100" relative="1" as="geometry">
            <mxPoint x="60" y="130" as="sourcePoint" />
            <mxPoint x="160" y="130" as="targetPoint" />
            <Array as="points">
              <mxPoint x="150" y="120" />
            </Array>
          </mxGeometry>
        </mxCell>
        <mxCell id="yc71Wg18bdyl_Ytq6EHl-2" value="render mold form" style="endArrow=classic;html=1;rounded=0;" parent="1" source="0sfk7AXrvDm8hyk8Vwgc-2" target="0sfk7AXrvDm8hyk8Vwgc-1" edge="1">
          <mxGeometry width="50" height="50" relative="1" as="geometry">
            <mxPoint x="150" y="300" as="sourcePoint" />
            <mxPoint x="200" y="250" as="targetPoint" />
            <Array as="points">
              <mxPoint x="140" y="160" />
            </Array>
          </mxGeometry>
        </mxCell>
        <mxCell id="yc71Wg18bdyl_Ytq6EHl-3" value="input form and submit" style="edgeStyle=none;orthogonalLoop=1;jettySize=auto;html=1;rounded=0;" parent="1" source="0sfk7AXrvDm8hyk8Vwgc-1" target="0sfk7AXrvDm8hyk8Vwgc-2" edge="1">
          <mxGeometry width="100" relative="1" as="geometry">
            <mxPoint x="50" y="270" as="sourcePoint" />
            <mxPoint x="150" y="270" as="targetPoint" />
            <Array as="points">
              <mxPoint x="130" y="200" />
            </Array>
          </mxGeometry>
        </mxCell>
        <mxCell id="yc71Wg18bdyl_Ytq6EHl-4" value="use data &amp;amp; JWT to create new mold" style="edgeStyle=none;orthogonalLoop=1;jettySize=auto;html=1;rounded=0;" parent="1" source="0sfk7AXrvDm8hyk8Vwgc-2" target="0sfk7AXrvDm8hyk8Vwgc-3" edge="1">
          <mxGeometry width="100" relative="1" as="geometry">
            <mxPoint x="330" y="260" as="sourcePoint" />
            <mxPoint x="430" y="260" as="targetPoint" />
            <Array as="points">
              <mxPoint x="380" y="240" />
            </Array>
          </mxGeometry>
        </mxCell>
        <mxCell id="yc71Wg18bdyl_Ytq6EHl-6" value="condition" style="shape=umlFrame;whiteSpace=wrap;html=1;pointerEvents=0;" parent="1" vertex="1">
          <mxGeometry x="20" y="270" width="780" height="330" as="geometry" />
        </mxCell>
        <mxCell id="yc71Wg18bdyl_Ytq6EHl-7" value="response unauthorize" style="edgeStyle=none;orthogonalLoop=1;jettySize=auto;html=1;rounded=0;" parent="1" source="0sfk7AXrvDm8hyk8Vwgc-3" target="0sfk7AXrvDm8hyk8Vwgc-2" edge="1">
          <mxGeometry width="100" relative="1" as="geometry">
            <mxPoint x="370" y="330" as="sourcePoint" />
            <mxPoint x="470" y="330" as="targetPoint" />
            <Array as="points">
              <mxPoint x="380" y="320" />
            </Array>
          </mxGeometry>
        </mxCell>
        <mxCell id="yc71Wg18bdyl_Ytq6EHl-8" value="show unauthorize error" style="edgeStyle=none;orthogonalLoop=1;jettySize=auto;html=1;rounded=0;" parent="1" source="0sfk7AXrvDm8hyk8Vwgc-2" target="0sfk7AXrvDm8hyk8Vwgc-1" edge="1">
          <mxGeometry width="100" relative="1" as="geometry">
            <mxPoint x="120" y="410" as="sourcePoint" />
            <mxPoint x="220" y="410" as="targetPoint" />
            <Array as="points">
              <mxPoint x="170" y="360" />
            </Array>
          </mxGeometry>
        </mxCell>
        <mxCell id="yc71Wg18bdyl_Ytq6EHl-12" value="execute sql insert into script" style="endArrow=classic;html=1;rounded=0;" parent="1" source="0sfk7AXrvDm8hyk8Vwgc-3" target="0sfk7AXrvDm8hyk8Vwgc-4" edge="1">
          <mxGeometry width="50" height="50" relative="1" as="geometry">
            <mxPoint x="600" y="480" as="sourcePoint" />
            <mxPoint x="650" y="430" as="targetPoint" />
            <Array as="points">
              <mxPoint x="630" y="440" />
            </Array>
            <mxPoint as="offset" />
          </mxGeometry>
        </mxCell>
        <mxCell id="yc71Wg18bdyl_Ytq6EHl-13" value="response result" style="edgeStyle=none;orthogonalLoop=1;jettySize=auto;html=1;rounded=0;" parent="1" source="0sfk7AXrvDm8hyk8Vwgc-4" target="0sfk7AXrvDm8hyk8Vwgc-3" edge="1">
          <mxGeometry width="100" relative="1" as="geometry">
            <mxPoint x="520" y="500" as="sourcePoint" />
            <mxPoint x="620" y="500" as="targetPoint" />
            <Array as="points">
              <mxPoint x="630" y="480" />
            </Array>
          </mxGeometry>
        </mxCell>
        <mxCell id="yc71Wg18bdyl_Ytq6EHl-14" value="response success" style="edgeStyle=none;orthogonalLoop=1;jettySize=auto;html=1;rounded=0;" parent="1" source="0sfk7AXrvDm8hyk8Vwgc-3" target="0sfk7AXrvDm8hyk8Vwgc-2" edge="1">
          <mxGeometry width="100" relative="1" as="geometry">
            <mxPoint x="350" y="480" as="sourcePoint" />
            <mxPoint x="450" y="480" as="targetPoint" />
            <Array as="points">
              <mxPoint x="400" y="520" />
            </Array>
          </mxGeometry>
        </mxCell>
        <mxCell id="yc71Wg18bdyl_Ytq6EHl-15" value="" style="line;strokeWidth=1;fillColor=none;align=left;verticalAlign=middle;spacingTop=-1;spacingLeft=3;spacingRight=3;rotatable=0;labelPosition=right;points=[];portConstraint=eastwest;strokeColor=inherit;" parent="1" vertex="1">
          <mxGeometry x="20" y="390" width="780" height="8" as="geometry" />
        </mxCell>
        <mxCell id="yc71Wg18bdyl_Ytq6EHl-16" value="show all mold" style="edgeStyle=none;orthogonalLoop=1;jettySize=auto;html=1;rounded=0;" parent="1" source="0sfk7AXrvDm8hyk8Vwgc-2" target="0sfk7AXrvDm8hyk8Vwgc-1" edge="1">
          <mxGeometry width="100" relative="1" as="geometry">
            <mxPoint x="110" y="510" as="sourcePoint" />
            <mxPoint x="210" y="510" as="targetPoint" />
            <Array as="points" />
          </mxGeometry>
        </mxCell>
        <mxCell id="yc71Wg18bdyl_Ytq6EHl-17" value="JWT is not valid" style="text;html=1;align=center;verticalAlign=middle;resizable=0;points=[];autosize=1;strokeColor=none;fillColor=none;" parent="1" vertex="1">
          <mxGeometry x="80" y="280" width="110" height="30" as="geometry" />
        </mxCell>
        <mxCell id="yc71Wg18bdyl_Ytq6EHl-18" value="JWT is valid" style="text;html=1;align=center;verticalAlign=middle;resizable=0;points=[];autosize=1;strokeColor=none;fillColor=none;" parent="1" vertex="1">
          <mxGeometry x="90" y="398" width="90" height="30" as="geometry" />
        </mxCell>
      </root>
    </mxGraphModel>
  </diagram>
  <diagram name="read mold" id="s74IYy2KfI6uZbrdKQpE">
    <mxGraphModel dx="1042" dy="626" grid="1" gridSize="10" guides="1" tooltips="1" connect="1" arrows="1" fold="1" page="1" pageScale="1" pageWidth="827" pageHeight="1169" math="0" shadow="0">
      <root>
        <mxCell id="j9GqrQirA7PPuFlPMpm7-0" />
        <mxCell id="j9GqrQirA7PPuFlPMpm7-1" parent="j9GqrQirA7PPuFlPMpm7-0" />
        <mxCell id="j9GqrQirA7PPuFlPMpm7-2" value="" style="shape=umlLifeline;perimeter=lifelinePerimeter;whiteSpace=wrap;html=1;container=1;dropTarget=0;collapsible=0;recursiveResize=0;outlineConnect=0;portConstraint=eastwest;newEdgeStyle={&quot;curved&quot;:0,&quot;rounded&quot;:0};participant=umlActor;" parent="j9GqrQirA7PPuFlPMpm7-1" vertex="1">
          <mxGeometry x="30" y="40" width="20" height="1040" as="geometry" />
        </mxCell>
        <mxCell id="j9GqrQirA7PPuFlPMpm7-3" value="Frontend" style="shape=umlLifeline;perimeter=lifelinePerimeter;whiteSpace=wrap;html=1;container=1;dropTarget=0;collapsible=0;recursiveResize=0;outlineConnect=0;portConstraint=eastwest;newEdgeStyle={&quot;curved&quot;:0,&quot;rounded&quot;:0};" parent="j9GqrQirA7PPuFlPMpm7-1" vertex="1">
          <mxGeometry x="230" y="40" width="100" height="1040" as="geometry" />
        </mxCell>
        <mxCell id="5d3ESW_53rIxTBVY8y-o-0" value="" style="html=1;points=[[0,0,0,0,5],[0,1,0,0,-5],[1,0,0,0,5],[1,1,0,0,-5]];perimeter=orthogonalPerimeter;outlineConnect=0;targetShapes=umlLifeline;portConstraint=eastwest;newEdgeStyle={&quot;curved&quot;:0,&quot;rounded&quot;:0};" parent="j9GqrQirA7PPuFlPMpm7-3" vertex="1">
          <mxGeometry x="45" y="80" width="10" height="40" as="geometry" />
        </mxCell>
        <mxCell id="5d3ESW_53rIxTBVY8y-o-1" value="" style="html=1;points=[[0,0,0,0,5],[0,1,0,0,-5],[1,0,0,0,5],[1,1,0,0,-5]];perimeter=orthogonalPerimeter;outlineConnect=0;targetShapes=umlLifeline;portConstraint=eastwest;newEdgeStyle={&quot;curved&quot;:0,&quot;rounded&quot;:0};" parent="j9GqrQirA7PPuFlPMpm7-3" vertex="1">
          <mxGeometry x="45" y="200" width="10" height="40" as="geometry" />
        </mxCell>
        <mxCell id="5d3ESW_53rIxTBVY8y-o-2" value="" style="html=1;points=[[0,0,0,0,5],[0,1,0,0,-5],[1,0,0,0,5],[1,1,0,0,-5]];perimeter=orthogonalPerimeter;outlineConnect=0;targetShapes=umlLifeline;portConstraint=eastwest;newEdgeStyle={&quot;curved&quot;:0,&quot;rounded&quot;:0};" parent="j9GqrQirA7PPuFlPMpm7-3" vertex="1">
          <mxGeometry x="45" y="400" width="10" height="40" as="geometry" />
        </mxCell>
        <mxCell id="j9GqrQirA7PPuFlPMpm7-4" value="Backend" style="shape=umlLifeline;perimeter=lifelinePerimeter;whiteSpace=wrap;html=1;container=1;dropTarget=0;collapsible=0;recursiveResize=0;outlineConnect=0;portConstraint=eastwest;newEdgeStyle={&quot;curved&quot;:0,&quot;rounded&quot;:0};" parent="j9GqrQirA7PPuFlPMpm7-1" vertex="1">
          <mxGeometry x="470" y="40" width="100" height="1040" as="geometry" />
        </mxCell>
        <mxCell id="5d3ESW_53rIxTBVY8y-o-3" value="" style="html=1;points=[[0,0,0,0,5],[0,1,0,0,-5],[1,0,0,0,5],[1,1,0,0,-5]];perimeter=orthogonalPerimeter;outlineConnect=0;targetShapes=umlLifeline;portConstraint=eastwest;newEdgeStyle={&quot;curved&quot;:0,&quot;rounded&quot;:0};" parent="j9GqrQirA7PPuFlPMpm7-4" vertex="1">
          <mxGeometry x="45" y="180" width="10" height="20" as="geometry" />
        </mxCell>
        <mxCell id="5d3ESW_53rIxTBVY8y-o-4" value="" style="html=1;points=[[0,0,0,0,5],[0,1,0,0,-5],[1,0,0,0,5],[1,1,0,0,-5]];perimeter=orthogonalPerimeter;outlineConnect=0;targetShapes=umlLifeline;portConstraint=eastwest;newEdgeStyle={&quot;curved&quot;:0,&quot;rounded&quot;:0};" parent="j9GqrQirA7PPuFlPMpm7-4" vertex="1">
          <mxGeometry x="45" y="300" width="10" height="20" as="geometry" />
        </mxCell>
        <mxCell id="5d3ESW_53rIxTBVY8y-o-6" value="" style="html=1;points=[[0,0,0,0,5],[0,1,0,0,-5],[1,0,0,0,5],[1,1,0,0,-5]];perimeter=orthogonalPerimeter;outlineConnect=0;targetShapes=umlLifeline;portConstraint=eastwest;newEdgeStyle={&quot;curved&quot;:0,&quot;rounded&quot;:0};" parent="j9GqrQirA7PPuFlPMpm7-4" vertex="1">
          <mxGeometry x="45" y="360" width="10" height="40" as="geometry" />
        </mxCell>
        <mxCell id="j9GqrQirA7PPuFlPMpm7-5" value="Database" style="shape=umlLifeline;perimeter=lifelinePerimeter;whiteSpace=wrap;html=1;container=1;dropTarget=0;collapsible=0;recursiveResize=0;outlineConnect=0;portConstraint=eastwest;newEdgeStyle={&quot;curved&quot;:0,&quot;rounded&quot;:0};" parent="j9GqrQirA7PPuFlPMpm7-1" vertex="1">
          <mxGeometry x="710" y="40" width="100" height="1050" as="geometry" />
        </mxCell>
        <mxCell id="5d3ESW_53rIxTBVY8y-o-5" value="" style="html=1;points=[[0,0,0,0,5],[0,1,0,0,-5],[1,0,0,0,5],[1,1,0,0,-5]];perimeter=orthogonalPerimeter;outlineConnect=0;targetShapes=umlLifeline;portConstraint=eastwest;newEdgeStyle={&quot;curved&quot;:0,&quot;rounded&quot;:0};" parent="j9GqrQirA7PPuFlPMpm7-5" vertex="1">
          <mxGeometry x="45" y="320" width="10" height="40" as="geometry" />
        </mxCell>
        <mxCell id="j9GqrQirA7PPuFlPMpm7-6" value="access mold page" style="edgeStyle=none;orthogonalLoop=1;jettySize=auto;html=1;rounded=0;" parent="j9GqrQirA7PPuFlPMpm7-1" source="j9GqrQirA7PPuFlPMpm7-2" target="j9GqrQirA7PPuFlPMpm7-3" edge="1">
          <mxGeometry width="100" relative="1" as="geometry">
            <mxPoint x="60" y="130" as="sourcePoint" />
            <mxPoint x="160" y="130" as="targetPoint" />
            <Array as="points">
              <mxPoint x="150" y="120" />
            </Array>
          </mxGeometry>
        </mxCell>
        <mxCell id="j9GqrQirA7PPuFlPMpm7-9" value="use JWT to get all mold" style="edgeStyle=none;orthogonalLoop=1;jettySize=auto;html=1;rounded=0;" parent="j9GqrQirA7PPuFlPMpm7-1" edge="1">
          <mxGeometry width="100" relative="1" as="geometry">
            <mxPoint x="279.54761904761926" y="160" as="sourcePoint" />
            <mxPoint x="519.5" y="160" as="targetPoint" />
            <Array as="points">
              <mxPoint x="380" y="160" />
            </Array>
          </mxGeometry>
        </mxCell>
        <mxCell id="j9GqrQirA7PPuFlPMpm7-10" value="condition" style="shape=umlFrame;whiteSpace=wrap;html=1;pointerEvents=0;" parent="j9GqrQirA7PPuFlPMpm7-1" vertex="1">
          <mxGeometry x="20" y="200" width="780" height="320" as="geometry" />
        </mxCell>
        <mxCell id="j9GqrQirA7PPuFlPMpm7-11" value="response unauthorize" style="edgeStyle=none;orthogonalLoop=1;jettySize=auto;html=1;rounded=0;" parent="j9GqrQirA7PPuFlPMpm7-1" edge="1">
          <mxGeometry width="100" relative="1" as="geometry">
            <mxPoint x="519.5" y="240" as="sourcePoint" />
            <mxPoint x="279.54761904761926" y="240" as="targetPoint" />
            <Array as="points">
              <mxPoint x="380" y="240" />
            </Array>
          </mxGeometry>
        </mxCell>
        <mxCell id="j9GqrQirA7PPuFlPMpm7-12" value="show unauthorize error" style="edgeStyle=none;orthogonalLoop=1;jettySize=auto;html=1;rounded=0;" parent="j9GqrQirA7PPuFlPMpm7-1" edge="1">
          <mxGeometry width="100" relative="1" as="geometry">
            <mxPoint x="279.5" y="280" as="sourcePoint" />
            <mxPoint x="39.547619047619264" y="280" as="targetPoint" />
            <Array as="points">
              <mxPoint x="170" y="280" />
            </Array>
          </mxGeometry>
        </mxCell>
        <mxCell id="j9GqrQirA7PPuFlPMpm7-13" value="execute sql select script" style="endArrow=classic;html=1;rounded=0;" parent="j9GqrQirA7PPuFlPMpm7-1" edge="1">
          <mxGeometry width="50" height="50" relative="1" as="geometry">
            <mxPoint x="519.5476190476193" y="360" as="sourcePoint" />
            <mxPoint x="759.5" y="360" as="targetPoint" />
            <Array as="points">
              <mxPoint x="630" y="360" />
            </Array>
          </mxGeometry>
        </mxCell>
        <mxCell id="j9GqrQirA7PPuFlPMpm7-14" value="response data" style="edgeStyle=none;orthogonalLoop=1;jettySize=auto;html=1;rounded=0;" parent="j9GqrQirA7PPuFlPMpm7-1" edge="1">
          <mxGeometry width="100" relative="1" as="geometry">
            <mxPoint x="759.5" y="400" as="sourcePoint" />
            <mxPoint x="519.5476190476193" y="400" as="targetPoint" />
            <Array as="points">
              <mxPoint x="630" y="400" />
            </Array>
          </mxGeometry>
        </mxCell>
        <mxCell id="j9GqrQirA7PPuFlPMpm7-15" value="response data" style="edgeStyle=none;orthogonalLoop=1;jettySize=auto;html=1;rounded=0;" parent="j9GqrQirA7PPuFlPMpm7-1" edge="1">
          <mxGeometry width="100" relative="1" as="geometry">
            <mxPoint x="519.5" y="440" as="sourcePoint" />
            <mxPoint x="279.54761904761926" y="440" as="targetPoint" />
            <Array as="points">
              <mxPoint x="400" y="440" />
            </Array>
          </mxGeometry>
        </mxCell>
        <mxCell id="j9GqrQirA7PPuFlPMpm7-16" value="" style="line;strokeWidth=1;fillColor=none;align=left;verticalAlign=middle;spacingTop=-1;spacingLeft=3;spacingRight=3;rotatable=0;labelPosition=right;points=[];portConstraint=eastwest;strokeColor=inherit;" parent="j9GqrQirA7PPuFlPMpm7-1" vertex="1">
          <mxGeometry x="20" y="310" width="780" height="8" as="geometry" />
        </mxCell>
        <mxCell id="j9GqrQirA7PPuFlPMpm7-17" value="show all mold" style="edgeStyle=none;orthogonalLoop=1;jettySize=auto;html=1;rounded=0;" parent="j9GqrQirA7PPuFlPMpm7-1" edge="1">
          <mxGeometry width="100" relative="1" as="geometry">
            <mxPoint x="279.5" y="480.0000000000002" as="sourcePoint" />
            <mxPoint x="39.547619047619264" y="480.0000000000002" as="targetPoint" />
            <Array as="points" />
          </mxGeometry>
        </mxCell>
        <mxCell id="j9GqrQirA7PPuFlPMpm7-18" value="JWT is not valid" style="text;html=1;align=center;verticalAlign=middle;resizable=0;points=[];autosize=1;strokeColor=none;fillColor=none;" parent="j9GqrQirA7PPuFlPMpm7-1" vertex="1">
          <mxGeometry x="80" y="200" width="110" height="30" as="geometry" />
        </mxCell>
        <mxCell id="j9GqrQirA7PPuFlPMpm7-19" value="JWT is valid" style="text;html=1;align=center;verticalAlign=middle;resizable=0;points=[];autosize=1;strokeColor=none;fillColor=none;" parent="j9GqrQirA7PPuFlPMpm7-1" vertex="1">
          <mxGeometry x="90" y="318" width="90" height="30" as="geometry" />
        </mxCell>
      </root>
    </mxGraphModel>
  </diagram>
  <diagram name="update mold" id="NYbjLyJvrAINxWaTLIas">
    <mxGraphModel dx="1042" dy="626" grid="1" gridSize="10" guides="1" tooltips="1" connect="1" arrows="1" fold="1" page="1" pageScale="1" pageWidth="827" pageHeight="1169" math="0" shadow="0">
      <root>
        <mxCell id="nX1C1eP51W9F4md8jBZj-0" />
        <mxCell id="nX1C1eP51W9F4md8jBZj-1" parent="nX1C1eP51W9F4md8jBZj-0" />
        <mxCell id="nX1C1eP51W9F4md8jBZj-2" value="" style="shape=umlLifeline;perimeter=lifelinePerimeter;whiteSpace=wrap;html=1;container=1;dropTarget=0;collapsible=0;recursiveResize=0;outlineConnect=0;portConstraint=eastwest;newEdgeStyle={&quot;curved&quot;:0,&quot;rounded&quot;:0};participant=umlActor;" parent="nX1C1eP51W9F4md8jBZj-1" vertex="1">
          <mxGeometry x="30" y="40" width="20" height="1040" as="geometry" />
        </mxCell>
        <mxCell id="nX1C1eP51W9F4md8jBZj-3" value="Frontend" style="shape=umlLifeline;perimeter=lifelinePerimeter;whiteSpace=wrap;html=1;container=1;dropTarget=0;collapsible=0;recursiveResize=0;outlineConnect=0;portConstraint=eastwest;newEdgeStyle={&quot;curved&quot;:0,&quot;rounded&quot;:0};" parent="nX1C1eP51W9F4md8jBZj-1" vertex="1">
          <mxGeometry x="230" y="40" width="100" height="1040" as="geometry" />
        </mxCell>
        <mxCell id="Ldh-TVFPE3_-hMN82iZA-0" value="" style="html=1;points=[[0,0,0,0,5],[0,1,0,0,-5],[1,0,0,0,5],[1,1,0,0,-5]];perimeter=orthogonalPerimeter;outlineConnect=0;targetShapes=umlLifeline;portConstraint=eastwest;newEdgeStyle={&quot;curved&quot;:0,&quot;rounded&quot;:0};" parent="nX1C1eP51W9F4md8jBZj-3" vertex="1">
          <mxGeometry x="45" y="80" width="10" height="40" as="geometry" />
        </mxCell>
        <mxCell id="Ldh-TVFPE3_-hMN82iZA-1" value="" style="html=1;points=[[0,0,0,0,5],[0,1,0,0,-5],[1,0,0,0,5],[1,1,0,0,-5]];perimeter=orthogonalPerimeter;outlineConnect=0;targetShapes=umlLifeline;portConstraint=eastwest;newEdgeStyle={&quot;curved&quot;:0,&quot;rounded&quot;:0};" parent="nX1C1eP51W9F4md8jBZj-3" vertex="1">
          <mxGeometry x="45" y="190" width="10" height="40" as="geometry" />
        </mxCell>
        <mxCell id="Ldh-TVFPE3_-hMN82iZA-2" value="" style="html=1;points=[[0,0,0,0,5],[0,1,0,0,-5],[1,0,0,0,5],[1,1,0,0,-5]];perimeter=orthogonalPerimeter;outlineConnect=0;targetShapes=umlLifeline;portConstraint=eastwest;newEdgeStyle={&quot;curved&quot;:0,&quot;rounded&quot;:0};" parent="nX1C1eP51W9F4md8jBZj-3" vertex="1">
          <mxGeometry x="45" y="390" width="10" height="40" as="geometry" />
        </mxCell>
        <mxCell id="Ldh-TVFPE3_-hMN82iZA-3" value="" style="html=1;points=[[0,0,0,0,5],[0,1,0,0,-5],[1,0,0,0,5],[1,1,0,0,-5]];perimeter=orthogonalPerimeter;outlineConnect=0;targetShapes=umlLifeline;portConstraint=eastwest;newEdgeStyle={&quot;curved&quot;:0,&quot;rounded&quot;:0};" parent="nX1C1eP51W9F4md8jBZj-3" vertex="1">
          <mxGeometry x="45" y="520" width="10" height="40" as="geometry" />
        </mxCell>
        <mxCell id="Ldh-TVFPE3_-hMN82iZA-4" value="" style="html=1;points=[[0,0,0,0,5],[0,1,0,0,-5],[1,0,0,0,5],[1,1,0,0,-5]];perimeter=orthogonalPerimeter;outlineConnect=0;targetShapes=umlLifeline;portConstraint=eastwest;newEdgeStyle={&quot;curved&quot;:0,&quot;rounded&quot;:0};" parent="nX1C1eP51W9F4md8jBZj-3" vertex="1">
          <mxGeometry x="45" y="640" width="10" height="40" as="geometry" />
        </mxCell>
        <mxCell id="Ldh-TVFPE3_-hMN82iZA-5" value="" style="html=1;points=[[0,0,0,0,5],[0,1,0,0,-5],[1,0,0,0,5],[1,1,0,0,-5]];perimeter=orthogonalPerimeter;outlineConnect=0;targetShapes=umlLifeline;portConstraint=eastwest;newEdgeStyle={&quot;curved&quot;:0,&quot;rounded&quot;:0};" parent="nX1C1eP51W9F4md8jBZj-3" vertex="1">
          <mxGeometry x="45" y="840" width="10" height="40" as="geometry" />
        </mxCell>
        <mxCell id="nX1C1eP51W9F4md8jBZj-4" value="Backend" style="shape=umlLifeline;perimeter=lifelinePerimeter;whiteSpace=wrap;html=1;container=1;dropTarget=0;collapsible=0;recursiveResize=0;outlineConnect=0;portConstraint=eastwest;newEdgeStyle={&quot;curved&quot;:0,&quot;rounded&quot;:0};" parent="nX1C1eP51W9F4md8jBZj-1" vertex="1">
          <mxGeometry x="470" y="40" width="100" height="1040" as="geometry" />
        </mxCell>
        <mxCell id="Ldh-TVFPE3_-hMN82iZA-6" value="" style="html=1;points=[[0,0,0,0,5],[0,1,0,0,-5],[1,0,0,0,5],[1,1,0,0,-5]];perimeter=orthogonalPerimeter;outlineConnect=0;targetShapes=umlLifeline;portConstraint=eastwest;newEdgeStyle={&quot;curved&quot;:0,&quot;rounded&quot;:0};" parent="nX1C1eP51W9F4md8jBZj-4" vertex="1">
          <mxGeometry x="45" y="170" width="10" height="20" as="geometry" />
        </mxCell>
        <mxCell id="Ldh-TVFPE3_-hMN82iZA-7" value="" style="html=1;points=[[0,0,0,0,5],[0,1,0,0,-5],[1,0,0,0,5],[1,1,0,0,-5]];perimeter=orthogonalPerimeter;outlineConnect=0;targetShapes=umlLifeline;portConstraint=eastwest;newEdgeStyle={&quot;curved&quot;:0,&quot;rounded&quot;:0};" parent="nX1C1eP51W9F4md8jBZj-4" vertex="1">
          <mxGeometry x="45" y="290" width="10" height="20" as="geometry" />
        </mxCell>
        <mxCell id="Ldh-TVFPE3_-hMN82iZA-8" value="" style="html=1;points=[[0,0,0,0,5],[0,1,0,0,-5],[1,0,0,0,5],[1,1,0,0,-5]];perimeter=orthogonalPerimeter;outlineConnect=0;targetShapes=umlLifeline;portConstraint=eastwest;newEdgeStyle={&quot;curved&quot;:0,&quot;rounded&quot;:0};" parent="nX1C1eP51W9F4md8jBZj-4" vertex="1">
          <mxGeometry x="45" y="620" width="10" height="20" as="geometry" />
        </mxCell>
        <mxCell id="Ldh-TVFPE3_-hMN82iZA-9" value="" style="html=1;points=[[0,0,0,0,5],[0,1,0,0,-5],[1,0,0,0,5],[1,1,0,0,-5]];perimeter=orthogonalPerimeter;outlineConnect=0;targetShapes=umlLifeline;portConstraint=eastwest;newEdgeStyle={&quot;curved&quot;:0,&quot;rounded&quot;:0};" parent="nX1C1eP51W9F4md8jBZj-4" vertex="1">
          <mxGeometry x="45" y="740" width="10" height="20" as="geometry" />
        </mxCell>
        <mxCell id="Ldh-TVFPE3_-hMN82iZA-10" value="" style="html=1;points=[[0,0,0,0,5],[0,1,0,0,-5],[1,0,0,0,5],[1,1,0,0,-5]];perimeter=orthogonalPerimeter;outlineConnect=0;targetShapes=umlLifeline;portConstraint=eastwest;newEdgeStyle={&quot;curved&quot;:0,&quot;rounded&quot;:0};" parent="nX1C1eP51W9F4md8jBZj-4" vertex="1">
          <mxGeometry x="45" y="800" width="10" height="40" as="geometry" />
        </mxCell>
        <mxCell id="Ldh-TVFPE3_-hMN82iZA-14" value="" style="html=1;points=[[0,0,0,0,5],[0,1,0,0,-5],[1,0,0,0,5],[1,1,0,0,-5]];perimeter=orthogonalPerimeter;outlineConnect=0;targetShapes=umlLifeline;portConstraint=eastwest;newEdgeStyle={&quot;curved&quot;:0,&quot;rounded&quot;:0};" parent="nX1C1eP51W9F4md8jBZj-4" vertex="1">
          <mxGeometry x="45" y="350" width="10" height="40" as="geometry" />
        </mxCell>
        <mxCell id="nX1C1eP51W9F4md8jBZj-5" value="Database" style="shape=umlLifeline;perimeter=lifelinePerimeter;whiteSpace=wrap;html=1;container=1;dropTarget=0;collapsible=0;recursiveResize=0;outlineConnect=0;portConstraint=eastwest;newEdgeStyle={&quot;curved&quot;:0,&quot;rounded&quot;:0};" parent="nX1C1eP51W9F4md8jBZj-1" vertex="1">
          <mxGeometry x="710" y="40" width="100" height="1050" as="geometry" />
        </mxCell>
        <mxCell id="Ldh-TVFPE3_-hMN82iZA-12" value="" style="html=1;points=[[0,0,0,0,5],[0,1,0,0,-5],[1,0,0,0,5],[1,1,0,0,-5]];perimeter=orthogonalPerimeter;outlineConnect=0;targetShapes=umlLifeline;portConstraint=eastwest;newEdgeStyle={&quot;curved&quot;:0,&quot;rounded&quot;:0};" parent="nX1C1eP51W9F4md8jBZj-5" vertex="1">
          <mxGeometry x="45" y="310" width="10" height="40" as="geometry" />
        </mxCell>
        <mxCell id="Ldh-TVFPE3_-hMN82iZA-13" value="" style="html=1;points=[[0,0,0,0,5],[0,1,0,0,-5],[1,0,0,0,5],[1,1,0,0,-5]];perimeter=orthogonalPerimeter;outlineConnect=0;targetShapes=umlLifeline;portConstraint=eastwest;newEdgeStyle={&quot;curved&quot;:0,&quot;rounded&quot;:0};" parent="nX1C1eP51W9F4md8jBZj-5" vertex="1">
          <mxGeometry x="45" y="760" width="10" height="40" as="geometry" />
        </mxCell>
        <mxCell id="nX1C1eP51W9F4md8jBZj-6" value="access update mold page" style="edgeStyle=none;orthogonalLoop=1;jettySize=auto;html=1;rounded=0;" parent="nX1C1eP51W9F4md8jBZj-1" source="nX1C1eP51W9F4md8jBZj-2" target="nX1C1eP51W9F4md8jBZj-3" edge="1">
          <mxGeometry width="100" relative="1" as="geometry">
            <mxPoint x="60" y="130" as="sourcePoint" />
            <mxPoint x="160" y="130" as="targetPoint" />
            <Array as="points">
              <mxPoint x="150" y="120" />
            </Array>
          </mxGeometry>
        </mxCell>
        <mxCell id="nX1C1eP51W9F4md8jBZj-8" value="edit data in form and submit" style="edgeStyle=none;orthogonalLoop=1;jettySize=auto;html=1;rounded=0;" parent="nX1C1eP51W9F4md8jBZj-1" edge="1">
          <mxGeometry width="100" relative="1" as="geometry">
            <mxPoint x="38.833333333333485" y="560" as="sourcePoint" />
            <mxPoint x="279.5000000000002" y="560" as="targetPoint" />
            <Array as="points">
              <mxPoint x="130" y="560" />
            </Array>
          </mxGeometry>
        </mxCell>
        <mxCell id="nX1C1eP51W9F4md8jBZj-9" value="use mold ID &amp;amp; data &amp;amp; JWT to update" style="edgeStyle=none;orthogonalLoop=1;jettySize=auto;html=1;rounded=0;" parent="nX1C1eP51W9F4md8jBZj-1" edge="1">
          <mxGeometry width="100" relative="1" as="geometry">
            <mxPoint x="278.8333333333335" y="600" as="sourcePoint" />
            <mxPoint x="519.5000000000005" y="600" as="targetPoint" />
            <Array as="points">
              <mxPoint x="380" y="600" />
            </Array>
          </mxGeometry>
        </mxCell>
        <mxCell id="nX1C1eP51W9F4md8jBZj-10" value="condition" style="shape=umlFrame;whiteSpace=wrap;html=1;pointerEvents=0;" parent="nX1C1eP51W9F4md8jBZj-1" vertex="1">
          <mxGeometry x="20" y="640" width="780" height="320" as="geometry" />
        </mxCell>
        <mxCell id="nX1C1eP51W9F4md8jBZj-11" value="response unauthorize" style="edgeStyle=none;orthogonalLoop=1;jettySize=auto;html=1;rounded=0;" parent="nX1C1eP51W9F4md8jBZj-1" edge="1">
          <mxGeometry width="100" relative="1" as="geometry">
            <mxPoint x="519.5000000000005" y="680" as="sourcePoint" />
            <mxPoint x="278.8333333333335" y="680" as="targetPoint" />
            <Array as="points">
              <mxPoint x="380" y="680" />
            </Array>
          </mxGeometry>
        </mxCell>
        <mxCell id="nX1C1eP51W9F4md8jBZj-12" value="show unauthorize error" style="edgeStyle=none;orthogonalLoop=1;jettySize=auto;html=1;rounded=0;" parent="nX1C1eP51W9F4md8jBZj-1" edge="1">
          <mxGeometry width="100" relative="1" as="geometry">
            <mxPoint x="279.5000000000002" y="720" as="sourcePoint" />
            <mxPoint x="38.833333333333485" y="720" as="targetPoint" />
            <Array as="points">
              <mxPoint x="170" y="720" />
            </Array>
          </mxGeometry>
        </mxCell>
        <mxCell id="nX1C1eP51W9F4md8jBZj-13" value="execute sql update script" style="endArrow=classic;html=1;rounded=0;" parent="nX1C1eP51W9F4md8jBZj-1" edge="1">
          <mxGeometry width="50" height="50" relative="1" as="geometry">
            <mxPoint x="518.8333333333335" y="800" as="sourcePoint" />
            <mxPoint x="759.5000000000005" y="800" as="targetPoint" />
            <Array as="points">
              <mxPoint x="630" y="800" />
            </Array>
          </mxGeometry>
        </mxCell>
        <mxCell id="nX1C1eP51W9F4md8jBZj-14" value="response result" style="edgeStyle=none;orthogonalLoop=1;jettySize=auto;html=1;rounded=0;" parent="nX1C1eP51W9F4md8jBZj-1" edge="1">
          <mxGeometry width="100" relative="1" as="geometry">
            <mxPoint x="759.5000000000005" y="840" as="sourcePoint" />
            <mxPoint x="518.8333333333335" y="840" as="targetPoint" />
            <Array as="points">
              <mxPoint x="630" y="840" />
            </Array>
          </mxGeometry>
        </mxCell>
        <mxCell id="nX1C1eP51W9F4md8jBZj-15" value="response success" style="edgeStyle=none;orthogonalLoop=1;jettySize=auto;html=1;rounded=0;" parent="nX1C1eP51W9F4md8jBZj-1" edge="1">
          <mxGeometry width="100" relative="1" as="geometry">
            <mxPoint x="519.5000000000005" y="880" as="sourcePoint" />
            <mxPoint x="278.8333333333335" y="880" as="targetPoint" />
            <Array as="points">
              <mxPoint x="400" y="880" />
            </Array>
          </mxGeometry>
        </mxCell>
        <mxCell id="nX1C1eP51W9F4md8jBZj-16" value="" style="line;strokeWidth=1;fillColor=none;align=left;verticalAlign=middle;spacingTop=-1;spacingLeft=3;spacingRight=3;rotatable=0;labelPosition=right;points=[];portConstraint=eastwest;strokeColor=inherit;" parent="nX1C1eP51W9F4md8jBZj-1" vertex="1">
          <mxGeometry x="20" y="750" width="780" height="8" as="geometry" />
        </mxCell>
        <mxCell id="nX1C1eP51W9F4md8jBZj-17" value="show all mold" style="edgeStyle=none;orthogonalLoop=1;jettySize=auto;html=1;rounded=0;" parent="nX1C1eP51W9F4md8jBZj-1" edge="1">
          <mxGeometry width="100" relative="1" as="geometry">
            <mxPoint x="279.5000000000002" y="920" as="sourcePoint" />
            <mxPoint x="38.833333333333485" y="920" as="targetPoint" />
            <Array as="points" />
          </mxGeometry>
        </mxCell>
        <mxCell id="nX1C1eP51W9F4md8jBZj-18" value="JWT is not valid" style="text;html=1;align=center;verticalAlign=middle;resizable=0;points=[];autosize=1;strokeColor=none;fillColor=none;" parent="nX1C1eP51W9F4md8jBZj-1" vertex="1">
          <mxGeometry x="80" y="640" width="110" height="30" as="geometry" />
        </mxCell>
        <mxCell id="nX1C1eP51W9F4md8jBZj-19" value="JWT is valid" style="text;html=1;align=center;verticalAlign=middle;resizable=0;points=[];autosize=1;strokeColor=none;fillColor=none;" parent="nX1C1eP51W9F4md8jBZj-1" vertex="1">
          <mxGeometry x="90" y="758" width="90" height="30" as="geometry" />
        </mxCell>
        <mxCell id="WA20oIFBH3dVUE38zyWo-10" value="condition" style="shape=umlFrame;whiteSpace=wrap;html=1;pointerEvents=0;" parent="nX1C1eP51W9F4md8jBZj-1" vertex="1">
          <mxGeometry x="23" y="200" width="780" height="320" as="geometry" />
        </mxCell>
        <mxCell id="WA20oIFBH3dVUE38zyWo-11" value="response unauthorize" style="edgeStyle=none;orthogonalLoop=1;jettySize=auto;html=1;rounded=0;" parent="nX1C1eP51W9F4md8jBZj-1" edge="1">
          <mxGeometry width="100" relative="1" as="geometry">
            <mxPoint x="520" y="230" as="sourcePoint" />
            <mxPoint x="280" y="230" as="targetPoint" />
            <Array as="points">
              <mxPoint x="380" y="230" />
            </Array>
          </mxGeometry>
        </mxCell>
        <mxCell id="WA20oIFBH3dVUE38zyWo-12" value="show unauthorize error" style="edgeStyle=none;orthogonalLoop=1;jettySize=auto;html=1;rounded=0;" parent="nX1C1eP51W9F4md8jBZj-1" edge="1">
          <mxGeometry width="100" relative="1" as="geometry">
            <mxPoint x="280" y="270" as="sourcePoint" />
            <mxPoint x="40" y="270" as="targetPoint" />
            <Array as="points">
              <mxPoint x="170" y="270" />
            </Array>
          </mxGeometry>
        </mxCell>
        <mxCell id="WA20oIFBH3dVUE38zyWo-13" value="execute sql select script" style="endArrow=classic;html=1;rounded=0;" parent="nX1C1eP51W9F4md8jBZj-1" edge="1">
          <mxGeometry width="50" height="50" relative="1" as="geometry">
            <mxPoint x="520" y="350" as="sourcePoint" />
            <mxPoint x="760" y="350" as="targetPoint" />
            <Array as="points">
              <mxPoint x="630" y="350" />
            </Array>
          </mxGeometry>
        </mxCell>
        <mxCell id="WA20oIFBH3dVUE38zyWo-14" value="response data" style="edgeStyle=none;orthogonalLoop=1;jettySize=auto;html=1;rounded=0;" parent="nX1C1eP51W9F4md8jBZj-1" edge="1">
          <mxGeometry width="100" relative="1" as="geometry">
            <mxPoint x="760" y="390" as="sourcePoint" />
            <mxPoint x="520" y="390" as="targetPoint" />
            <Array as="points">
              <mxPoint x="630" y="390" />
            </Array>
          </mxGeometry>
        </mxCell>
        <mxCell id="WA20oIFBH3dVUE38zyWo-15" value="response data" style="edgeStyle=none;orthogonalLoop=1;jettySize=auto;html=1;rounded=0;" parent="nX1C1eP51W9F4md8jBZj-1" edge="1">
          <mxGeometry width="100" relative="1" as="geometry">
            <mxPoint x="520" y="430" as="sourcePoint" />
            <mxPoint x="280" y="430" as="targetPoint" />
            <Array as="points">
              <mxPoint x="400" y="430" />
            </Array>
          </mxGeometry>
        </mxCell>
        <mxCell id="WA20oIFBH3dVUE38zyWo-16" value="" style="line;strokeWidth=1;fillColor=none;align=left;verticalAlign=middle;spacingTop=-1;spacingLeft=3;spacingRight=3;rotatable=0;labelPosition=right;points=[];portConstraint=eastwest;strokeColor=inherit;" parent="nX1C1eP51W9F4md8jBZj-1" vertex="1">
          <mxGeometry x="20" y="300" width="780" height="8" as="geometry" />
        </mxCell>
        <mxCell id="WA20oIFBH3dVUE38zyWo-17" value="show this mold in form" style="edgeStyle=none;orthogonalLoop=1;jettySize=auto;html=1;rounded=0;" parent="nX1C1eP51W9F4md8jBZj-1" edge="1">
          <mxGeometry width="100" relative="1" as="geometry">
            <mxPoint x="280" y="470" as="sourcePoint" />
            <mxPoint x="40" y="470" as="targetPoint" />
            <Array as="points" />
          </mxGeometry>
        </mxCell>
        <mxCell id="WA20oIFBH3dVUE38zyWo-18" value="JWT is not valid" style="text;html=1;align=center;verticalAlign=middle;resizable=0;points=[];autosize=1;strokeColor=none;fillColor=none;" parent="nX1C1eP51W9F4md8jBZj-1" vertex="1">
          <mxGeometry x="80" y="190" width="110" height="30" as="geometry" />
        </mxCell>
        <mxCell id="WA20oIFBH3dVUE38zyWo-19" value="JWT is valid" style="text;html=1;align=center;verticalAlign=middle;resizable=0;points=[];autosize=1;strokeColor=none;fillColor=none;" parent="nX1C1eP51W9F4md8jBZj-1" vertex="1">
          <mxGeometry x="90" y="308" width="90" height="30" as="geometry" />
        </mxCell>
        <mxCell id="WA20oIFBH3dVUE38zyWo-20" value="use mold ID &amp;amp; JWT to get old data" style="edgeStyle=none;orthogonalLoop=1;jettySize=auto;html=1;rounded=0;" parent="nX1C1eP51W9F4md8jBZj-1" edge="1">
          <mxGeometry width="100" relative="1" as="geometry">
            <mxPoint x="279.5" y="160" as="sourcePoint" />
            <mxPoint x="519.5" y="160" as="targetPoint" />
            <Array as="points">
              <mxPoint x="360" y="160" />
            </Array>
          </mxGeometry>
        </mxCell>
      </root>
    </mxGraphModel>
  </diagram>
  <diagram name="delete mold" id="WKcats7uZsOSpESJGEsV">
    <mxGraphModel dx="1042" dy="626" grid="1" gridSize="10" guides="1" tooltips="1" connect="1" arrows="1" fold="1" page="1" pageScale="1" pageWidth="827" pageHeight="1169" math="0" shadow="0">
      <root>
        <mxCell id="pAK_7p1ECTHTuQFCB5Q--0" />
        <mxCell id="pAK_7p1ECTHTuQFCB5Q--1" parent="pAK_7p1ECTHTuQFCB5Q--0" />
        <mxCell id="pAK_7p1ECTHTuQFCB5Q--2" value="" style="shape=umlLifeline;perimeter=lifelinePerimeter;whiteSpace=wrap;html=1;container=1;dropTarget=0;collapsible=0;recursiveResize=0;outlineConnect=0;portConstraint=eastwest;newEdgeStyle={&quot;curved&quot;:0,&quot;rounded&quot;:0};participant=umlActor;" parent="pAK_7p1ECTHTuQFCB5Q--1" vertex="1">
          <mxGeometry x="30" y="40" width="20" height="1040" as="geometry" />
        </mxCell>
        <mxCell id="pAK_7p1ECTHTuQFCB5Q--3" value="Frontend" style="shape=umlLifeline;perimeter=lifelinePerimeter;whiteSpace=wrap;html=1;container=1;dropTarget=0;collapsible=0;recursiveResize=0;outlineConnect=0;portConstraint=eastwest;newEdgeStyle={&quot;curved&quot;:0,&quot;rounded&quot;:0};" parent="pAK_7p1ECTHTuQFCB5Q--1" vertex="1">
          <mxGeometry x="230" y="40" width="100" height="1040" as="geometry" />
        </mxCell>
        <mxCell id="BI8FkPoPfncGLMoor-Sq-2" value="" style="html=1;points=[[0,0,0,0,5],[0,1,0,0,-5],[1,0,0,0,5],[1,1,0,0,-5]];perimeter=orthogonalPerimeter;outlineConnect=0;targetShapes=umlLifeline;portConstraint=eastwest;newEdgeStyle={&quot;curved&quot;:0,&quot;rounded&quot;:0};" parent="pAK_7p1ECTHTuQFCB5Q--3" vertex="1">
          <mxGeometry x="45" y="200" width="10" height="40" as="geometry" />
        </mxCell>
        <mxCell id="BI8FkPoPfncGLMoor-Sq-3" value="" style="html=1;points=[[0,0,0,0,5],[0,1,0,0,-5],[1,0,0,0,5],[1,1,0,0,-5]];perimeter=orthogonalPerimeter;outlineConnect=0;targetShapes=umlLifeline;portConstraint=eastwest;newEdgeStyle={&quot;curved&quot;:0,&quot;rounded&quot;:0};" parent="pAK_7p1ECTHTuQFCB5Q--3" vertex="1">
          <mxGeometry x="45" y="400" width="10" height="40" as="geometry" />
        </mxCell>
        <mxCell id="pAK_7p1ECTHTuQFCB5Q--4" value="Backend" style="shape=umlLifeline;perimeter=lifelinePerimeter;whiteSpace=wrap;html=1;container=1;dropTarget=0;collapsible=0;recursiveResize=0;outlineConnect=0;portConstraint=eastwest;newEdgeStyle={&quot;curved&quot;:0,&quot;rounded&quot;:0};" parent="pAK_7p1ECTHTuQFCB5Q--1" vertex="1">
          <mxGeometry x="470" y="40" width="100" height="1040" as="geometry" />
        </mxCell>
        <mxCell id="BI8FkPoPfncGLMoor-Sq-4" value="" style="html=1;points=[[0,0,0,0,5],[0,1,0,0,-5],[1,0,0,0,5],[1,1,0,0,-5]];perimeter=orthogonalPerimeter;outlineConnect=0;targetShapes=umlLifeline;portConstraint=eastwest;newEdgeStyle={&quot;curved&quot;:0,&quot;rounded&quot;:0};" parent="pAK_7p1ECTHTuQFCB5Q--4" vertex="1">
          <mxGeometry x="45" y="170" width="10" height="30" as="geometry" />
        </mxCell>
        <mxCell id="BI8FkPoPfncGLMoor-Sq-5" value="" style="html=1;points=[[0,0,0,0,5],[0,1,0,0,-5],[1,0,0,0,5],[1,1,0,0,-5]];perimeter=orthogonalPerimeter;outlineConnect=0;targetShapes=umlLifeline;portConstraint=eastwest;newEdgeStyle={&quot;curved&quot;:0,&quot;rounded&quot;:0};" parent="pAK_7p1ECTHTuQFCB5Q--4" vertex="1">
          <mxGeometry x="45" y="290" width="10" height="30" as="geometry" />
        </mxCell>
        <mxCell id="BI8FkPoPfncGLMoor-Sq-7" value="" style="html=1;points=[[0,0,0,0,5],[0,1,0,0,-5],[1,0,0,0,5],[1,1,0,0,-5]];perimeter=orthogonalPerimeter;outlineConnect=0;targetShapes=umlLifeline;portConstraint=eastwest;newEdgeStyle={&quot;curved&quot;:0,&quot;rounded&quot;:0};" parent="pAK_7p1ECTHTuQFCB5Q--4" vertex="1">
          <mxGeometry x="45" y="360" width="10" height="40" as="geometry" />
        </mxCell>
        <mxCell id="pAK_7p1ECTHTuQFCB5Q--5" value="Database" style="shape=umlLifeline;perimeter=lifelinePerimeter;whiteSpace=wrap;html=1;container=1;dropTarget=0;collapsible=0;recursiveResize=0;outlineConnect=0;portConstraint=eastwest;newEdgeStyle={&quot;curved&quot;:0,&quot;rounded&quot;:0};" parent="pAK_7p1ECTHTuQFCB5Q--1" vertex="1">
          <mxGeometry x="710" y="40" width="100" height="1050" as="geometry" />
        </mxCell>
        <mxCell id="BI8FkPoPfncGLMoor-Sq-6" value="" style="html=1;points=[[0,0,0,0,5],[0,1,0,0,-5],[1,0,0,0,5],[1,1,0,0,-5]];perimeter=orthogonalPerimeter;outlineConnect=0;targetShapes=umlLifeline;portConstraint=eastwest;newEdgeStyle={&quot;curved&quot;:0,&quot;rounded&quot;:0};" parent="pAK_7p1ECTHTuQFCB5Q--5" vertex="1">
          <mxGeometry x="45" y="320" width="10" height="40" as="geometry" />
        </mxCell>
        <mxCell id="pAK_7p1ECTHTuQFCB5Q--6" value="press delete mold button" style="edgeStyle=none;orthogonalLoop=1;jettySize=auto;html=1;rounded=0;" parent="pAK_7p1ECTHTuQFCB5Q--1" source="pAK_7p1ECTHTuQFCB5Q--2" target="pAK_7p1ECTHTuQFCB5Q--3" edge="1">
          <mxGeometry width="100" relative="1" as="geometry">
            <mxPoint x="60" y="130" as="sourcePoint" />
            <mxPoint x="160" y="130" as="targetPoint" />
            <Array as="points">
              <mxPoint x="150" y="120" />
            </Array>
          </mxGeometry>
        </mxCell>
        <mxCell id="pAK_7p1ECTHTuQFCB5Q--7" value="use mold ID &amp;amp; JWT to delete" style="edgeStyle=none;orthogonalLoop=1;jettySize=auto;html=1;rounded=0;" parent="pAK_7p1ECTHTuQFCB5Q--1" source="BI8FkPoPfncGLMoor-Sq-0" edge="1">
          <mxGeometry width="100" relative="1" as="geometry">
            <mxPoint x="279.5" y="160" as="sourcePoint" />
            <mxPoint x="519.5" y="160" as="targetPoint" />
            <Array as="points">
              <mxPoint x="380" y="160" />
            </Array>
            <mxPoint as="offset" />
          </mxGeometry>
        </mxCell>
        <mxCell id="pAK_7p1ECTHTuQFCB5Q--8" value="condition" style="shape=umlFrame;whiteSpace=wrap;html=1;pointerEvents=0;" parent="pAK_7p1ECTHTuQFCB5Q--1" vertex="1">
          <mxGeometry x="20" y="200" width="780" height="320" as="geometry" />
        </mxCell>
        <mxCell id="pAK_7p1ECTHTuQFCB5Q--9" value="response unauthorize" style="edgeStyle=none;orthogonalLoop=1;jettySize=auto;html=1;rounded=0;" parent="pAK_7p1ECTHTuQFCB5Q--1" edge="1">
          <mxGeometry width="100" relative="1" as="geometry">
            <mxPoint x="519.5" y="240" as="sourcePoint" />
            <mxPoint x="279.5" y="240" as="targetPoint" />
            <Array as="points">
              <mxPoint x="380" y="240" />
            </Array>
          </mxGeometry>
        </mxCell>
        <mxCell id="pAK_7p1ECTHTuQFCB5Q--10" value="show unauthorize error" style="edgeStyle=none;orthogonalLoop=1;jettySize=auto;html=1;rounded=0;" parent="pAK_7p1ECTHTuQFCB5Q--1" edge="1">
          <mxGeometry width="100" relative="1" as="geometry">
            <mxPoint x="279.5" y="280" as="sourcePoint" />
            <mxPoint x="39.5" y="280" as="targetPoint" />
            <Array as="points">
              <mxPoint x="170" y="280" />
            </Array>
          </mxGeometry>
        </mxCell>
        <mxCell id="pAK_7p1ECTHTuQFCB5Q--11" value="execute sql delete script" style="endArrow=classic;html=1;rounded=0;" parent="pAK_7p1ECTHTuQFCB5Q--1" edge="1">
          <mxGeometry width="50" height="50" relative="1" as="geometry">
            <mxPoint x="519.5" y="360" as="sourcePoint" />
            <mxPoint x="759.5" y="360" as="targetPoint" />
            <Array as="points">
              <mxPoint x="630" y="360" />
            </Array>
          </mxGeometry>
        </mxCell>
        <mxCell id="pAK_7p1ECTHTuQFCB5Q--12" value="response result" style="edgeStyle=none;orthogonalLoop=1;jettySize=auto;html=1;rounded=0;" parent="pAK_7p1ECTHTuQFCB5Q--1" edge="1">
          <mxGeometry width="100" relative="1" as="geometry">
            <mxPoint x="759.5" y="400" as="sourcePoint" />
            <mxPoint x="519.5" y="400" as="targetPoint" />
            <Array as="points">
              <mxPoint x="630" y="400" />
            </Array>
          </mxGeometry>
        </mxCell>
        <mxCell id="pAK_7p1ECTHTuQFCB5Q--13" value="response success" style="edgeStyle=none;orthogonalLoop=1;jettySize=auto;html=1;rounded=0;" parent="pAK_7p1ECTHTuQFCB5Q--1" edge="1">
          <mxGeometry width="100" relative="1" as="geometry">
            <mxPoint x="519.5" y="440" as="sourcePoint" />
            <mxPoint x="279.5" y="440" as="targetPoint" />
            <Array as="points">
              <mxPoint x="400" y="440" />
            </Array>
          </mxGeometry>
        </mxCell>
        <mxCell id="pAK_7p1ECTHTuQFCB5Q--14" value="" style="line;strokeWidth=1;fillColor=none;align=left;verticalAlign=middle;spacingTop=-1;spacingLeft=3;spacingRight=3;rotatable=0;labelPosition=right;points=[];portConstraint=eastwest;strokeColor=inherit;" parent="pAK_7p1ECTHTuQFCB5Q--1" vertex="1">
          <mxGeometry x="20" y="310" width="780" height="8" as="geometry" />
        </mxCell>
        <mxCell id="pAK_7p1ECTHTuQFCB5Q--15" value="show all mold" style="edgeStyle=none;orthogonalLoop=1;jettySize=auto;html=1;rounded=0;" parent="pAK_7p1ECTHTuQFCB5Q--1" edge="1">
          <mxGeometry width="100" relative="1" as="geometry">
            <mxPoint x="279.5" y="480" as="sourcePoint" />
            <mxPoint x="39.5" y="480" as="targetPoint" />
            <Array as="points" />
          </mxGeometry>
        </mxCell>
        <mxCell id="pAK_7p1ECTHTuQFCB5Q--16" value="JWT is not valid" style="text;html=1;align=center;verticalAlign=middle;resizable=0;points=[];autosize=1;strokeColor=none;fillColor=none;" parent="pAK_7p1ECTHTuQFCB5Q--1" vertex="1">
          <mxGeometry x="80" y="200" width="110" height="30" as="geometry" />
        </mxCell>
        <mxCell id="pAK_7p1ECTHTuQFCB5Q--17" value="JWT is valid" style="text;html=1;align=center;verticalAlign=middle;resizable=0;points=[];autosize=1;strokeColor=none;fillColor=none;" parent="pAK_7p1ECTHTuQFCB5Q--1" vertex="1">
          <mxGeometry x="90" y="318" width="90" height="30" as="geometry" />
        </mxCell>
        <mxCell id="BI8FkPoPfncGLMoor-Sq-1" value="" style="edgeStyle=none;orthogonalLoop=1;jettySize=auto;html=1;rounded=0;" parent="pAK_7p1ECTHTuQFCB5Q--1" target="BI8FkPoPfncGLMoor-Sq-0" edge="1">
          <mxGeometry width="100" relative="1" as="geometry">
            <mxPoint x="279.5" y="160" as="sourcePoint" />
            <mxPoint x="519.5" y="160" as="targetPoint" />
            <Array as="points" />
            <mxPoint as="offset" />
          </mxGeometry>
        </mxCell>
        <mxCell id="BI8FkPoPfncGLMoor-Sq-0" value="" style="html=1;points=[[0,0,0,0,5],[0,1,0,0,-5],[1,0,0,0,5],[1,1,0,0,-5]];perimeter=orthogonalPerimeter;outlineConnect=0;targetShapes=umlLifeline;portConstraint=eastwest;newEdgeStyle={&quot;curved&quot;:0,&quot;rounded&quot;:0};" parent="pAK_7p1ECTHTuQFCB5Q--1" vertex="1">
          <mxGeometry x="275" y="120" width="10" height="40" as="geometry" />
        </mxCell>
      </root>
    </mxGraphModel>
  </diagram>
</mxfile>
